<svg width="128" height="128" viewBox="0 0 128 128" fill="none" xmlns="http://www.w3.org/2000/svg">
<path d="M32.8869 82.9618L27.9827 80.1303C27.0869 79.6131 25.9414 79.9198 25.4242 80.8158C24.9069 81.7116 25.2137 82.8571 26.1097 83.3743L31.0139 86.2058C31.3089 86.3761 31.6309 86.4571 31.9487 86.4571C32.5959 86.4571 33.2254 86.1213 33.5724 85.5203C34.0896 84.6246 33.7827 83.4791 32.8869 82.9618Z" fill="#C3C3C3"/>
<path d="M54.7046 95.5584L40.7023 87.4744C39.8063 86.9574 38.6611 87.2637 38.1438 88.1599C37.6266 89.0556 37.9336 90.2011 38.8293 90.7184L52.8316 98.8024C53.1266 98.9726 53.4486 99.0536 53.7663 99.0536C54.4136 99.0536 55.0431 98.7179 55.3901 98.1169C55.9073 97.2211 55.6003 96.0756 54.7046 95.5584Z" fill="#C3C3C3"/>
<path d="M55.1734 104.456L28.4517 89.0279C27.524 88.4926 26.338 88.8099 25.8022 89.7379C25.2665 90.6654 25.5845 91.8516 26.5122 92.3874L53.2339 107.815C53.5394 107.991 53.8729 108.075 54.2019 108.075C54.8722 108.075 55.5242 107.727 55.8834 107.105C56.4189 106.177 56.1012 104.991 55.1734 104.456Z" fill="#C3C3C3"/>
<path d="M125.988 48.3529L114.06 41.4664L125.988 34.5799C127.248 33.8526 128 32.5501 128 31.0956C128 29.6411 127.248 28.3387 125.988 27.6117L83.9738 3.35445C82.7333 2.6382 81.1916 2.6382 79.9506 3.35445L63.9999 12.5637L48.0489 3.35445C46.8082 2.6382 45.2667 2.6382 44.0257 3.35445L2.01175 27.6114C0.751999 28.3387 0 29.6411 0 31.0954C0 32.5501 0.751999 33.8526 2.01175 34.5796L13.9395 41.4661L2.01175 48.3529C0.752249 49.0799 0 50.3824 0 51.8371C0 53.2916 0.751999 54.5941 2.01175 55.3211L15.8122 63.2886V95.3715C15.8122 97.1313 16.759 98.771 18.283 99.651L61.2106 124.435C61.2496 124.458 61.2899 124.477 61.3294 124.498C61.3979 124.536 61.4659 124.574 61.5356 124.609C61.5671 124.624 61.5994 124.637 61.6311 124.652C61.7109 124.689 61.7906 124.727 61.8721 124.76C61.8871 124.767 61.9026 124.772 61.9179 124.778C62.5776 125.043 63.2849 125.183 64.0001 125.183C64.0414 125.183 64.0816 125.179 64.1221 125.176C65.0456 125.156 65.9654 124.911 66.7894 124.435L109.717 99.651C111.241 98.7713 112.188 97.1313 112.188 95.3715V63.2888L125.988 55.3214C127.248 54.5941 128 53.2916 128 51.8374C128 50.3824 127.248 49.0799 125.988 48.3529ZM3.88449 31.3359C3.85024 31.3161 3.74574 31.2556 3.74574 31.0954C3.74574 30.9354 3.85024 30.8749 3.88449 30.8551L45.8987 6.59819C45.9414 6.57344 45.9894 6.56119 46.0377 6.56119C46.0859 6.56119 46.1337 6.57369 46.1764 6.59819L60.2544 14.7262L17.685 39.3036L3.88449 31.3359ZM3.88499 52.0774C3.88474 52.0774 3.88499 52.0774 3.88499 52.0774C3.85049 52.0576 3.74599 51.9971 3.74599 51.8371C3.74599 51.6769 3.85049 51.6164 3.88474 51.5966L17.6852 43.6289L60.2544 68.2063L46.1764 76.3341C46.0909 76.3831 45.9844 76.3831 45.8989 76.3341L3.88499 52.0774ZM62.1274 120.639L20.156 96.4075C19.7872 96.1945 19.558 95.7975 19.558 95.3718V65.4513L44.0257 79.5776C44.6464 79.9361 45.3422 80.1153 46.0379 80.1153C46.1917 80.1153 46.3454 80.1051 46.4982 80.0876C46.6047 80.0753 46.7109 80.0603 46.8164 80.0398C46.8237 80.0383 46.8309 80.0363 46.8382 80.0348C47.2587 79.9501 47.6682 79.7981 48.0494 79.5778L62.1274 71.4501V120.639ZM63.9996 66.0433L21.431 41.4661L63.9999 16.8889L92.4188 33.2966C93.3146 33.8136 94.4601 33.5069 94.9773 32.6111C95.4946 31.7154 95.1876 30.5699 94.2918 30.0526L67.7456 14.7262L81.8233 6.59819C81.9088 6.54894 82.0153 6.54894 82.1011 6.59819L124.115 30.8551C124.15 30.8749 124.254 30.9354 124.254 31.0954C124.254 31.2556 124.15 31.3161 124.115 31.3359L110.315 39.3036L102.206 34.6221C101.31 34.1051 100.165 34.4114 99.6476 35.3076C99.1303 36.2034 99.4373 37.3489 100.333 37.8661L106.569 41.4664L63.9996 66.0433ZM108.442 95.3718C108.442 95.7975 108.213 96.1945 107.844 96.4075L65.8729 120.639V71.4501L79.9506 79.578C80.5711 79.9363 81.2666 80.1153 81.9621 80.1153C82.6578 80.1153 83.3533 79.9363 83.9738 79.578L108.442 65.4516V95.3718ZM124.115 52.0774L82.1008 76.3341C82.0153 76.3831 81.9091 76.3836 81.8233 76.3341L67.7456 68.2061L110.315 43.6289L124.115 51.5966C124.149 51.6164 124.254 51.6769 124.254 51.8371C124.254 51.9971 124.149 52.0576 124.115 52.0774Z" fill="#C3C3C3"/>
</svg>
