<svg width="12" height="12" viewBox="0 0 12 12" fill="none" xmlns="http://www.w3.org/2000/svg">
<g clip-path="url(#clip0)">
<path d="M6.00001 12C9.31373 12 12 9.31373 12 6.00001C12 2.6863 9.31373 0 6.00001 0C2.6863 0 0 2.6863 0 6.00001C0 9.31373 2.6863 12 6.00001 12Z" fill="#89BBE4"/>
<path d="M10.0668 7.67663C9.00065 7.05761 8.13311 7.33149 7.80555 7.3929C7.47804 7.45431 7.05755 6.72615 7.293 6.07281C7.44602 5.64815 6.76418 5.59518 6.60985 5.90039C6.54502 6.02859 6.58423 6.49084 6.11598 6.35941C5.72703 6.25026 5.76798 5.48943 5.70657 5.15166C5.64519 4.8139 6.48444 4.53755 6.92459 4.53755C7.36474 4.53755 7.65129 5.10049 7.78434 5.31541C7.91737 5.53038 8.25515 5.47919 8.04021 5.02884C7.82526 4.5785 8.55196 4.16909 8.63385 3.71874C8.71572 3.26839 9.99343 2.6282 9.53375 1.899C9.37454 1.64643 9.10389 1.46913 8.82876 1.45193C8.47816 1.43001 8.45467 0.887884 8.14 0.83372C7.969 0.804259 7.509 0.893087 7.48322 1.5895C7.46831 1.99242 7.08342 1.5895 6.50307 1.64109C6.00842 1.68506 6.51596 0.568901 4.95707 0.636213C3.88375 0.682572 4.16008 1.01667 3.53944 1.43735C2.12251 2.3977 2.68163 1.34965 2.22568 1.47773C2.12757 1.50527 2.04118 1.53323 1.96283 1.56147C1.11587 2.3323 0.49054 3.34229 0.193237 4.48463C0.610821 4.82339 1.36084 4.39327 1.69262 4.03128C2.03038 3.66282 2.83048 4.599 2.86917 4.8037C2.93801 5.16802 3.28458 5.30592 3.42415 5.75557C3.51626 6.0524 3.54883 6.37579 3.61183 6.6733C3.65955 6.89849 3.88031 7.00403 3.98707 7.00403C4.08154 7.00403 4.17813 6.92577 4.09996 6.66702C3.99811 6.32976 3.85106 5.7955 3.86423 5.66346C3.88469 5.45873 4.25317 5.64297 4.33504 5.92957C4.41693 6.21616 4.85626 7.10129 5.51809 7.23285C6.26994 7.38228 6.79146 6.70061 7.21456 7.54672C7.36207 7.84168 6.34976 7.89908 6.12284 8.85682C5.74283 10.4607 6.95086 10.6072 7.56994 11.792C9.388 11.3004 10.8636 9.97589 11.5621 8.25298C11.1521 7.85806 10.415 7.87885 10.0668 7.67663Z" fill="#145587"/>
</g>
<defs>
<clipPath id="clip0">
<rect width="12" height="12" fill="white"/>
</clipPath>
</defs>
</svg>
