<svg width="12" height="12" viewBox="0 0 12 12" fill="none" xmlns="http://www.w3.org/2000/svg">
<path d="M0 9.37501C0 10.7625 1.07651 11.8984 2.43984 11.9934H9.56016C10.9235 11.8984 12 10.7625 12 9.37501V8.9967H0V9.37501Z" fill="#FF4B55"/>
<path d="M9.56013 0.0065918H2.43987C1.07653 0.101607 0 1.23751 0 2.62501V6.00001H12V2.62501C12 1.23751 10.9235 0.101607 9.56013 0.0065918Z" fill="#FFE15A"/>
<path d="M12 6H0V8.99672H12V6Z" fill="#41479B"/>
<path d="M5.78408 7.1537L7.29533 5.85835V7.73305C7.29533 8.04901 7.03921 8.30513 6.72324 8.30513C6.58192 8.30513 6.44558 8.25282 6.34053 8.15827L5.78406 7.65746L5.78408 7.1537Z" fill="#FFE15A"/>
<path d="M6.58126 7.89083L6.14392 7.49722V6.8453L6.93552 6.16676V6.64067V7.73304C6.93552 7.85009 6.8403 7.94529 6.72327 7.94529C6.67075 7.94532 6.62031 7.92596 6.58126 7.89083Z" fill="#FF4B55"/>
<path d="M6.35983 6.66024V7.40126L6.71964 7.72613V6.63617V6.35183L6.93552 6.16676V6.64067V7.73304C6.93552 7.85009 6.8403 7.94529 6.72327 7.94529C6.67075 7.94529 6.62031 7.92594 6.58126 7.8908L6.14392 7.49719V6.84528L6.35983 6.66024Z" fill="#41479B"/>
<path d="M6.21584 7.1537L4.70459 5.85835V7.73305C4.70459 8.04901 4.96072 8.30513 5.27668 8.30513C5.41801 8.30513 5.55432 8.25282 5.65936 8.15827L6.21584 7.65746V7.1537Z" fill="#FFE15A"/>
<path d="M5.41871 7.89083L5.85605 7.49722V6.8453L5.06445 6.16676V6.64067V7.73304C5.06445 7.85009 5.15968 7.94529 5.2767 7.94529C5.32923 7.94532 5.37966 7.92596 5.41871 7.89083Z" fill="#FF4B55"/>
<path d="M5.64015 6.66024V7.40126L5.28034 7.72613V6.63617V6.35183L5.06445 6.16676V6.64067V7.73304C5.06445 7.85009 5.15968 7.94529 5.2767 7.94529C5.32923 7.94529 5.37966 7.92594 5.41871 7.8908L5.85605 7.49719V6.84528L5.64015 6.66024Z" fill="#41479B"/>
<path d="M7.3465 5.86478H7.24304V6.48465H7.3465V5.86478Z" fill="#41479B"/>
<path d="M4.75604 5.86478H4.65259V6.48465H4.75604V5.86478Z" fill="#41479B"/>
<path d="M5.78412 5.57048C5.78412 5.57048 5.92805 4.88683 5.42431 4.97679C4.92057 5.06674 4.92057 5.21067 4.34485 5.49853C4.34485 5.49853 4.99252 5.64246 5.28038 5.57048C5.28038 5.57048 5.49626 5.85834 5.71217 5.93029H5.92805L5.78412 5.57048Z" fill="#5A4646"/>
<path d="M6.21583 5.57048C6.21583 5.57048 6.0719 4.88683 6.57564 4.97679C7.07938 5.06674 7.07938 5.21067 7.6551 5.49853C7.6551 5.49853 7.00743 5.64246 6.71957 5.57048C6.71957 5.57048 6.50369 5.85834 6.28778 5.93029H6.0719L6.21583 5.57048Z" fill="#5A4646"/>
<path d="M6.21585 5.93032H5.78406V5.56783C5.78406 5.45006 5.87952 5.3546 5.99729 5.3546H6.00261C6.12039 5.3546 6.21585 5.45006 6.21585 5.56783V5.93032Z" fill="#5A4646"/>
<path d="M6.00001 5.71433C6.0795 5.71433 6.14394 5.64989 6.14394 5.5704C6.14394 5.49091 6.0795 5.42647 6.00001 5.42647C5.92052 5.42647 5.85608 5.49091 5.85608 5.5704C5.85608 5.64989 5.92052 5.71433 6.00001 5.71433Z" fill="#E6E1CD"/>
<path d="M5.69116 5.47753L5.96179 5.62205C5.98451 5.63416 6.01244 5.63001 6.03065 5.61183C6.05348 5.589 6.05348 5.55199 6.03065 5.52916L5.85609 5.3546H5.81412C5.74619 5.3546 5.69116 5.40963 5.69116 5.47753Z" fill="#FFD0AF"/>
<path d="M5.78501 5.49854H5.56824L5.66311 5.38749C5.68092 5.36663 5.70699 5.35463 5.73441 5.35463H5.8561V5.4275C5.85607 5.46671 5.82425 5.49854 5.78501 5.49854Z" fill="#FFAF94"/>
<path d="M6.6137 5.93049C6.56514 5.87285 6.5548 5.79649 6.57845 5.73031C6.64769 5.71821 6.72121 5.74135 6.76975 5.79898C6.81123 5.8482 6.82326 5.91085 6.81156 5.96939C6.82593 5.99381 6.84353 6.02522 6.86287 6.06228C6.86383 6.057 6.86362 6.05178 6.86512 6.0465C6.88209 5.98685 6.92941 5.94462 6.98547 5.9303C7.0256 5.97197 7.04367 6.03279 7.0267 6.09244C7.0121 6.14377 6.9745 6.18096 6.92873 6.19981C6.9468 6.24124 6.96468 6.28596 6.98137 6.33317C6.98233 6.3304 6.9824 6.32759 6.9835 6.32485C7.00694 6.2674 7.05864 6.23065 7.11592 6.22261C7.15122 6.26843 7.16247 6.33089 7.13903 6.38829C7.11853 6.43854 7.07599 6.47168 7.0274 6.48488C7.05243 6.58362 7.06903 6.68838 7.06903 6.79385H6.99707C6.99707 6.70196 6.98296 6.60987 6.96168 6.52179C6.91727 6.53613 6.86765 6.53309 6.82471 6.50677C6.77231 6.47466 6.74465 6.41822 6.74594 6.36092C6.7964 6.33373 6.85926 6.33274 6.91166 6.36483C6.91354 6.36598 6.91483 6.36767 6.91663 6.36891C6.90124 6.32461 6.88481 6.28256 6.86795 6.24317C6.82478 6.26358 6.77392 6.26672 6.7273 6.24481C6.67169 6.21867 6.63796 6.16561 6.63295 6.10852C6.67996 6.07603 6.74207 6.06816 6.79757 6.09399C6.77774 6.05588 6.75988 6.02402 6.74589 6.00019C6.69623 5.99461 6.64848 5.97178 6.6137 5.93049Z" fill="#8CB400"/>
<path d="M5.38631 5.93049C5.43487 5.87285 5.4452 5.79649 5.42156 5.73031C5.35232 5.71821 5.2788 5.74135 5.23026 5.79898C5.18878 5.8482 5.17675 5.91085 5.18845 5.96939C5.17408 5.99381 5.15648 6.02522 5.13714 6.06228C5.13618 6.057 5.13639 6.05178 5.13489 6.0465C5.11792 5.98685 5.0706 5.94462 5.01454 5.9303C4.97442 5.97197 4.95635 6.03279 4.97331 6.09244C4.98792 6.14377 5.02551 6.18096 5.07128 6.19981C5.05321 6.24124 5.03533 6.28596 5.01862 6.33317C5.01766 6.3304 5.01759 6.32759 5.01649 6.32485C4.99305 6.2674 4.94135 6.23065 4.88407 6.22261C4.84877 6.26843 4.83752 6.33089 4.86096 6.38829C4.88146 6.43854 4.924 6.47168 4.97259 6.48488C4.94756 6.58362 4.93096 6.68838 4.93096 6.79385H5.00292C5.00292 6.70196 5.01703 6.60987 5.03831 6.52179C5.08272 6.53613 5.13234 6.53309 5.17528 6.50677C5.22768 6.47466 5.25534 6.41822 5.25405 6.36092C5.20359 6.33373 5.14073 6.33274 5.08832 6.36483C5.08645 6.36598 5.08516 6.36767 5.08335 6.36891C5.09875 6.32461 5.11518 6.28256 5.13201 6.24317C5.17518 6.26358 5.22604 6.26672 5.27266 6.24481C5.32828 6.21867 5.362 6.16561 5.36702 6.10852C5.32 6.07603 5.25789 6.06816 5.20239 6.09399C5.22222 6.05588 5.24008 6.02402 5.25407 6.00019C5.30378 5.99461 5.35153 5.97178 5.38631 5.93049Z" fill="#8CB400"/>
<path d="M6.00002 7.51353L4.48877 6.21819V8.09288C4.48877 8.40882 4.74489 8.66497 5.06086 8.66497C5.20218 8.66497 5.33852 8.61265 5.44357 8.51811L6.00002 8.01727V7.51353Z" fill="#FFE15A"/>
<path d="M5.20277 8.25064L5.64011 7.85703V7.20512L4.84851 6.52658V7.00049V8.09286C4.84851 8.20991 4.94374 8.30511 5.06076 8.30511C5.11331 8.30514 5.16375 8.28578 5.20277 8.25064Z" fill="#FF4B55"/>
<path d="M5.42433 7.02006V7.76108L5.06452 8.08595V6.99599V6.71164L4.84863 6.52658V7.00049V8.09286C4.84863 8.20991 4.94386 8.30511 5.06088 8.30511C5.11341 8.30511 5.16384 8.28575 5.20289 8.25062L5.64023 7.85701V7.2051L5.42433 7.02006Z" fill="#41479B"/>
<path d="M6 7.51353L7.51125 6.21819V8.09288C7.51125 8.40882 7.25513 8.66497 6.93916 8.66497C6.79784 8.66497 6.66152 8.61265 6.55645 8.51811L6 8.01727V7.51353Z" fill="#FFE15A"/>
<path d="M6.79721 8.25064L6.35986 7.85703V7.20512L7.15146 6.52658V7.00049V8.09286C7.15146 8.20991 7.05624 8.30511 6.93921 8.30511C6.88667 8.30514 6.83623 8.28578 6.79721 8.25064Z" fill="#FF4B55"/>
<path d="M6.57577 7.02006V7.76108L6.93558 8.08595V6.99599V6.71164L7.15147 6.52658V7.00049V8.09286C7.15147 8.20991 7.05624 8.30511 6.93922 8.30511C6.88669 8.30511 6.83625 8.28575 6.79721 8.25062L6.35986 7.85701V7.2051L6.57577 7.02006Z" fill="#41479B"/>
<path d="M6.00005 8.08923C6.3975 8.08923 6.71969 7.6059 6.71969 7.00969C6.71969 6.41348 6.3975 5.93016 6.00005 5.93016C5.60259 5.93016 5.2804 6.41348 5.2804 7.00969C5.2804 7.6059 5.60259 8.08923 6.00005 8.08923Z" fill="#69C3FF"/>
<path d="M5.35232 7.29762H6.64766L6.71962 7.00976L6.39166 7.06442C6.32587 7.07539 6.25858 7.05664 6.20793 7.01323L5.83565 6.69413C5.80239 6.6656 5.76001 6.64995 5.71619 6.64995C5.66751 6.64995 5.62082 6.66928 5.58639 6.70371L5.35229 6.93781L5.35232 7.29762Z" fill="#009B64"/>
<path d="M5.93171 6.96143L6.05535 6.88245L5.83564 6.69413C5.80239 6.6656 5.76001 6.64995 5.71618 6.64995C5.6675 6.64995 5.62082 6.66928 5.58639 6.70371L5.35229 6.93781V7.00976L5.71211 6.93781L5.77574 6.96961C5.82557 6.99453 5.88479 6.99141 5.93171 6.96143Z" fill="#F5F5F5"/>
<path d="M5.35229 7.29762L5.42425 7.72941L5.78408 8.08925H5.99997L6.28783 8.01727L6.57569 7.72941L6.64764 7.29762H5.35229Z" fill="#5AA0E6"/>
<path d="M5.99998 8.1612C5.56348 8.1612 5.20837 7.64466 5.20837 7.00978C5.20837 6.37491 5.56348 5.85837 5.99998 5.85837C6.43648 5.85837 6.79158 6.37491 6.79158 7.00978C6.79158 7.64466 6.43648 8.1612 5.99998 8.1612ZM5.99998 6.00227C5.64286 6.00227 5.3523 6.45422 5.3523 7.00978C5.3523 7.56532 5.64286 8.01729 5.99998 8.01729C6.35709 8.01729 6.64765 7.56534 6.64765 7.00978C6.64765 6.45422 6.35709 6.00227 5.99998 6.00227Z" fill="#FFC88C"/>
<path d="M5.49229 8.08277C5.43194 7.99948 5.34215 7.94531 5.24041 7.94531C5.13867 7.94531 5.04888 7.99948 4.98853 8.08277C5.09139 8.1113 5.1756 8.19483 5.21547 8.30494C5.23153 8.34928 5.24038 8.39794 5.24038 8.44905C5.24041 8.27102 5.34799 8.12278 5.49229 8.08277Z" fill="#E1E1E1"/>
<path d="M5.29762 8.30982C5.29762 8.30982 5.29199 8.40578 5.2428 8.45075L5.24073 8.44907C5.19154 8.40409 5.18591 8.30814 5.18591 8.30814L5.29762 8.30982Z" fill="#E1E1E1"/>
<path d="M6.89999 8.3411H5.09998C5.08037 8.3411 5.06445 8.32519 5.06445 8.30557V8.30468C5.06445 8.28506 5.08037 8.26915 5.09998 8.26915H6.89999C6.9196 8.26915 6.93552 8.28506 6.93552 8.30468V8.30557C6.93552 8.32519 6.9196 8.3411 6.89999 8.3411Z" fill="#966446"/>
<path d="M6.36155 8.44906H5.63836C5.55985 8.44906 5.49622 8.3854 5.49622 8.30691V8.30337C5.49622 8.22486 5.55987 8.16122 5.63836 8.16122H6.36155C6.44007 8.16122 6.5037 8.22488 6.5037 8.30337V8.30691C6.5037 8.3854 6.44007 8.44906 6.36155 8.44906Z" fill="#BE915A"/>
<path d="M5.35231 8.26915H5.10043C5.08055 8.26915 5.06445 8.28525 5.06445 8.30513C5.06445 8.325 5.08055 8.3411 5.10043 8.3411H5.35231V8.26915V8.26915Z" fill="#B9B9B9"/>
<path d="M6.00002 8.44907V9.10658L5.71216 9.02476L5.85609 8.44907H6.00002Z" fill="#FF4B55"/>
<path d="M5.928 8.44907L5.78408 8.95281L5.49622 8.88086L5.7121 8.44907H5.928Z" fill="#41479B"/>
<path d="M5.64022 8.44907L5.42432 8.73692L5.64022 8.80888L5.78415 8.44907H5.64022Z" fill="#FFE15A"/>
<path d="M6 8.44907V9.10658L6.28786 9.02476L6.14393 8.44907H6Z" fill="#FF4B55"/>
<path d="M6.07202 8.44907L6.21595 8.95281L6.50381 8.88086L6.28793 8.44907H6.07202Z" fill="#41479B"/>
<path d="M6.35975 8.44907L6.57566 8.73692L6.35975 8.80888L6.21582 8.44907H6.35975Z" fill="#FFE15A"/>
<path d="M4.54056 6.83797L4.43713 6.73372V6.21809H4.54056V6.83797Z" fill="#41479B"/>
<path d="M7.56219 6.73372L7.45874 6.83797V6.21809H7.56219V6.73372Z" fill="#41479B"/>
</svg>
