<svg width="12" height="12" viewBox="0 0 12 12" fill="none" xmlns="http://www.w3.org/2000/svg">
<path d="M9.375 0H2.625C1.17525 0 0 1.17525 0 2.625V9.375C0 10.8247 1.17525 12 2.625 12H9.375C10.8247 12 12 10.8247 12 9.375V2.625C12 1.17525 10.8247 0 9.375 0Z" fill="#C8414B"/>
<path d="M12 2.49915H0V9.50086H12V2.49915Z" fill="#FFD250"/>
<path d="M5.22867 6.00965L5.42215 5.22063C5.43996 5.14797 5.37895 5.07904 5.29683 5.07904H5.16054C5.07841 5.07904 5.01738 5.14797 5.03522 5.22063L5.22867 6.00965Z" fill="#C8414B"/>
<path d="M5.45676 5.59593H5.00037V7.35375H5.45676V5.59593Z" fill="#F5F5F5"/>
<path d="M5.57108 5.38922H4.88647V5.59601H5.57108V5.38922Z" fill="#FAB446"/>
<path d="M5.57095 6.00958H4.42999V6.21637H5.57095V6.00958Z" fill="#C8414B"/>
<path d="M5.57094 6.83685L4.88635 6.63004V6.42325L5.57094 6.63004V6.83685Z" fill="#C8414B"/>
<path d="M1.80582 6.00965L1.9993 5.22063C2.01711 5.14797 1.9561 5.07904 1.87398 5.07904H1.73769C1.65556 5.07904 1.59453 5.14797 1.61237 5.22063L1.80582 6.00965Z" fill="#C8414B"/>
<path d="M2.60447 5.38924C2.47845 5.38924 2.37628 5.48181 2.37628 5.59605V6.94026C2.37628 7.19153 2.63506 7.66405 3.51727 7.66405C4.39948 7.66405 4.65825 7.19151 4.65825 6.94026V5.59605C4.65825 5.48184 4.55609 5.38924 4.43006 5.38924H2.60447Z" fill="#F5F5F5"/>
<path d="M3.5172 6.42325H2.37622V5.60648C2.37622 5.4865 2.47349 5.38924 2.59346 5.38924H3.5172V6.42325Z" fill="#C8414B"/>
<path d="M3.51727 6.42326H4.65826V6.91419C4.65826 7.21412 4.41512 7.45728 4.11516 7.45728H4.06037C3.76044 7.45728 3.51727 7.21414 3.51727 6.91419V6.42326Z" fill="#C8414B"/>
<path d="M2.37622 6.42326H3.5172V6.91419C3.5172 7.21412 3.27406 7.45728 2.97411 7.45728H2.91931C2.61938 7.45728 2.37622 7.21414 2.37622 6.91419C2.37622 6.91419 2.37622 6.42326 2.37622 6.42326Z" fill="#FAB446"/>
<path d="M3.2891 7.35153V6.42326H3.06091V7.44685C3.14576 7.43122 3.22247 7.39716 3.2891 7.35153Z" fill="#C8414B"/>
<path d="M2.83268 7.44685V6.42326H2.60449V7.35153C2.67113 7.39716 2.74781 7.43122 2.83268 7.44685Z" fill="#C8414B"/>
<path d="M3.28898 6.00961H2.60437V6.2164H3.28898V6.00961Z" fill="#FFB441"/>
<path d="M3.28898 5.59593H2.60437V5.80274H3.28898V5.59593Z" fill="#FAB446"/>
<path d="M3.17491 5.71898H2.71851V6.09363H3.17491V5.71898Z" fill="#FAB446"/>
<path d="M2.03397 5.59593H1.57758V7.35375H2.03397V5.59593Z" fill="#F5F5F5"/>
<path d="M2.14805 7.25041H1.46344V7.4572H2.14805V7.25041Z" fill="#FAB446"/>
<path d="M2.14805 5.38922H1.46344V5.59601H2.14805V5.38922Z" fill="#FAB446"/>
<path d="M2.26208 7.45734H1.3493V7.66413H2.26208V7.45734Z" fill="#5064AA"/>
<path d="M5.68498 7.2504H5.00037V7.45719H5.68498V7.2504Z" fill="#FAB446"/>
<path d="M5.68511 7.45734H4.77234V7.66413H5.68511V7.45734Z" fill="#5064AA"/>
<path d="M4.20186 5.1825H2.83264V5.38928H4.20186V5.1825Z" fill="#FAB446"/>
<path d="M3.63132 4.5621H3.40314V5.18252H3.63132V4.5621Z" fill="#FFB441"/>
<path d="M3.28906 4.87224C3.10032 4.87224 2.94678 4.73309 2.94678 4.56204C2.94678 4.39099 3.10032 4.25185 3.28906 4.25185C3.4778 4.25185 3.63134 4.39099 3.63134 4.56204C3.63134 4.73309 3.4778 4.87224 3.28906 4.87224ZM3.28906 4.45864C3.2261 4.45864 3.17496 4.50499 3.17496 4.56204C3.17496 4.61909 3.2261 4.66545 3.28906 4.66545C3.35201 4.66545 3.40315 4.61909 3.40315 4.56204C3.40315 4.50499 3.35201 4.45864 3.28906 4.45864Z" fill="#F5F5F5"/>
<path d="M3.74536 4.87224C3.55661 4.87224 3.40308 4.73309 3.40308 4.56204C3.40308 4.39099 3.55661 4.25185 3.74536 4.25185C3.9341 4.25185 4.08764 4.39099 4.08764 4.56204C4.08764 4.73309 3.93412 4.87224 3.74536 4.87224ZM3.74536 4.45864C3.6824 4.45864 3.63126 4.50499 3.63126 4.56204C3.63126 4.61909 3.6824 4.66545 3.74536 4.66545C3.80831 4.66545 3.85945 4.61909 3.85945 4.56204C3.85945 4.50499 3.80831 4.45864 3.74536 4.45864Z" fill="#F5F5F5"/>
<path d="M4.20184 5.07905C4.0131 5.07905 3.85956 4.93991 3.85956 4.76886C3.85956 4.59781 4.0131 4.45866 4.20184 4.45866C4.39058 4.45866 4.54414 4.59781 4.54414 4.76886C4.54414 4.93991 4.39058 5.07905 4.20184 5.07905ZM4.20184 4.66545C4.13889 4.66545 4.08775 4.71181 4.08775 4.76886C4.08775 4.82591 4.13889 4.87227 4.20184 4.87227C4.26479 4.87227 4.31593 4.82591 4.31593 4.76886C4.31593 4.71179 4.26479 4.66545 4.20184 4.66545Z" fill="#F5F5F5"/>
<path d="M2.83264 5.07905C2.6439 5.07905 2.49036 4.93991 2.49036 4.76886C2.49036 4.59781 2.6439 4.45866 2.83264 4.45866C3.02138 4.45866 3.17492 4.59781 3.17492 4.76886C3.17492 4.93991 3.02138 5.07905 2.83264 5.07905ZM2.83264 4.66545C2.76968 4.66545 2.71854 4.71181 2.71854 4.76886C2.71854 4.82591 2.76968 4.87227 2.83264 4.87227C2.89559 4.87227 2.94673 4.82591 2.94673 4.76886C2.94673 4.71179 2.89559 4.66545 2.83264 4.66545Z" fill="#F5F5F5"/>
<path d="M4.20182 6.83686V6.94027C4.20182 6.99729 4.15063 7.04368 4.08773 7.04368C4.02482 7.04368 3.97363 6.99729 3.97363 6.94027V6.83686H4.20182ZM4.43001 6.63005H3.74542V6.94025C3.74542 7.11129 3.89899 7.25044 4.0877 7.25044C4.27645 7.25044 4.43001 7.11127 4.43001 6.94025V6.63005V6.63005Z" fill="#FAB446"/>
<path d="M4.09865 6.21644H4.07674C3.95676 6.21644 3.8595 6.11917 3.8595 5.9992V5.81327C3.8595 5.69329 3.95676 5.59602 4.07674 5.59602H4.09865C4.21863 5.59602 4.3159 5.69329 4.3159 5.81327V5.9992C4.3159 6.1192 4.21863 6.21644 4.09865 6.21644Z" fill="#FFA0D2"/>
<path d="M3.51727 6.73347C3.70631 6.73347 3.85955 6.59459 3.85955 6.42328C3.85955 6.25196 3.70631 6.11308 3.51727 6.11308C3.32823 6.11308 3.17499 6.25196 3.17499 6.42328C3.17499 6.59459 3.32823 6.73347 3.51727 6.73347Z" fill="#5064AA"/>
<path d="M3.63132 4.14844H3.40314V4.76885H3.63132V4.14844Z" fill="#FAB446"/>
<path d="M2.83268 5.18246L2.60449 4.97564L2.73816 4.8545C2.94478 4.66723 3.22505 4.56204 3.51726 4.56204C3.80948 4.56204 4.08975 4.66725 4.29637 4.8545L4.43004 4.97564L4.20185 5.18246H2.83268Z" fill="#C8414B"/>
<path d="M3.51729 5.07894C3.5803 5.07894 3.63139 5.03265 3.63139 4.97554C3.63139 4.91843 3.5803 4.87213 3.51729 4.87213C3.45428 4.87213 3.4032 4.91843 3.4032 4.97554C3.4032 5.03265 3.45428 5.07894 3.51729 5.07894Z" fill="#FFD250"/>
<path d="M3.06093 5.07894C3.12395 5.07894 3.17503 5.03265 3.17503 4.97554C3.17503 4.91843 3.12395 4.87213 3.06093 4.87213C2.99792 4.87213 2.94684 4.91843 2.94684 4.97554C2.94684 5.03265 2.99792 5.07894 3.06093 5.07894Z" fill="#FFD250"/>
<path d="M3.97353 5.07894C4.03654 5.07894 4.08762 5.03265 4.08762 4.97554C4.08762 4.91843 4.03654 4.87213 3.97353 4.87213C3.91052 4.87213 3.85944 4.91843 3.85944 4.97554C3.85944 5.03265 3.91052 5.07894 3.97353 5.07894Z" fill="#FFD250"/>
<path d="M2.6044 6.00961H1.46344V6.2164H2.6044V6.00961Z" fill="#C8414B"/>
<path d="M1.4635 6.83688L2.14809 6.63007V6.42328L1.4635 6.63007V6.83688Z" fill="#C8414B"/>
</svg>
