<svg width="12" height="12" viewBox="0 0 12 12" fill="none" xmlns="http://www.w3.org/2000/svg">
<path d="M9.375 0H2.625C1.17525 0 0 1.17525 0 2.625V3.99609H12V2.625C12 1.17525 10.8247 0 9.375 0Z" fill="#FFE15A"/>
<path d="M0 9.375C0 10.8247 1.17525 12 2.625 12H9.375C10.8247 12 12 10.8247 12 9.375V8.00391H0V9.375Z" fill="#FF4B55"/>
<path d="M0 4.00821V7.99179V8.00391H12V7.99179V4.00821V3.99609H0V4.00821Z" fill="#41479B"/>
<path d="M3.6061 6.67186L3.67412 6.87579L3.88909 6.87746C3.91693 6.87767 3.92846 6.9132 3.90608 6.92972L3.73314 7.05743L3.79799 7.26239C3.80638 7.28893 3.77617 7.31089 3.75353 7.29469L3.57864 7.16968L3.40375 7.29469C3.3811 7.31089 3.35089 7.28893 3.35928 7.26239L3.42414 7.05743L3.25119 6.92972C3.22881 6.91317 3.24034 6.87767 3.26818 6.87746L3.48315 6.87579L3.55117 6.67186C3.55996 6.64547 3.59729 6.64547 3.6061 6.67186Z" fill="#F5F5F5"/>
<path d="M4.02376 6.02266L3.98731 6.23453L4.17599 6.33761C4.20041 6.35095 4.1938 6.38772 4.16626 6.3917L3.95349 6.4225L3.91377 6.63379C3.90863 6.66114 3.87163 6.6662 3.85932 6.64124L3.76428 6.4484L3.55107 6.47589C3.52346 6.47945 3.50722 6.44582 3.52717 6.42642L3.6812 6.27644L3.58916 6.08217C3.57725 6.05702 3.60421 6.03117 3.62884 6.04413L3.81908 6.14425L3.97541 5.99667C3.99556 5.97756 4.02847 5.99521 4.02376 6.02266Z" fill="#F5F5F5"/>
<path d="M4.55229 5.45443L4.45139 5.64428L4.59834 5.80119C4.61737 5.82151 4.59959 5.85435 4.57219 5.84952L4.36045 5.81223L4.25662 6.00048C4.24317 6.02486 4.20644 6.01808 4.20258 5.99052L4.17262 5.77764L3.9615 5.73707C3.93417 5.73182 3.92925 5.69478 3.95426 5.6826L4.14748 5.58831L4.12083 5.37498C4.11738 5.34737 4.15106 5.33125 4.1704 5.35126L4.31977 5.50588L4.51441 5.41461C4.53961 5.4028 4.56534 5.42985 4.55229 5.45443Z" fill="#F5F5F5"/>
<path d="M5.18825 5.1019L5.03991 5.25753L5.13914 5.44824C5.15199 5.47292 5.12602 5.49975 5.10092 5.48773L4.90709 5.39475L4.75636 5.54806C4.73684 5.56791 4.7033 5.55148 4.707 5.52392L4.73553 5.31082L4.54315 5.21485C4.51824 5.20242 4.52349 5.16544 4.55086 5.16042L4.76234 5.12171L4.79417 4.9091C4.79829 4.88159 4.83507 4.87514 4.84831 4.89964L4.95047 5.0888L5.16251 5.05336C5.18996 5.04877 5.20744 5.08177 5.18825 5.1019Z" fill="#F5F5F5"/>
<path d="M5.91936 4.93855L5.73477 5.04876L5.77927 5.25908C5.78504 5.28632 5.75281 5.30521 5.73186 5.28688L5.57002 5.14537L5.38374 5.25269C5.35962 5.26658 5.33169 5.24179 5.34266 5.21619L5.42722 5.01855L5.26759 4.87455C5.24691 4.85591 5.26187 4.82169 5.28959 4.82418L5.5037 4.84354L5.59133 4.64723C5.60267 4.6218 5.63984 4.62545 5.64603 4.65259L5.6938 4.86219L5.90759 4.88486C5.93525 4.88781 5.94326 4.92428 5.91936 4.93855Z" fill="#F5F5F5"/>
<path d="M8.39394 6.67186L8.32592 6.87579L8.11096 6.87746C8.08311 6.87767 8.07158 6.9132 8.09396 6.92972L8.26691 7.05743L8.20206 7.26239C8.19367 7.28893 8.22388 7.31089 8.24652 7.29469L8.42141 7.16968L8.5963 7.29469C8.61894 7.31089 8.64915 7.28893 8.64076 7.26239L8.57591 7.05743L8.74885 6.92972C8.77124 6.91317 8.75971 6.87767 8.73186 6.87746L8.51689 6.87579L8.44888 6.67186C8.44009 6.64547 8.40275 6.64547 8.39394 6.67186Z" fill="#F5F5F5"/>
<path d="M7.97629 6.02266L8.01273 6.23453L7.82406 6.33761C7.79964 6.35095 7.80625 6.38772 7.83379 6.3917L8.04655 6.4225L8.08628 6.63379C8.09141 6.66114 8.12842 6.6662 8.14072 6.64124L8.23576 6.4484L8.44897 6.47589C8.47658 6.47945 8.49283 6.44582 8.47288 6.42642L8.31885 6.27644L8.41089 6.08217C8.42279 6.05702 8.39584 6.03117 8.37121 6.04413L8.18097 6.14425L8.02464 5.99667C8.00448 5.97756 7.97158 5.99521 7.97629 6.02266Z" fill="#F5F5F5"/>
<path d="M7.44778 5.45443L7.54868 5.64428L7.40173 5.80119C7.3827 5.82151 7.40049 5.85435 7.42789 5.84952L7.63962 5.81223L7.74345 6.00048C7.7569 6.02486 7.79363 6.01808 7.79749 5.99052L7.82745 5.77764L8.03857 5.73707C8.0659 5.73182 8.07082 5.69478 8.04581 5.6826L7.8526 5.58831L7.87924 5.37498C7.88269 5.34737 7.84901 5.33125 7.82967 5.35126L7.68031 5.50588L7.48566 5.41461C7.46046 5.4028 7.43473 5.42985 7.44778 5.45443Z" fill="#F5F5F5"/>
<path d="M6.81181 5.1019L6.96014 5.25753L6.86091 5.44824C6.84807 5.47292 6.87404 5.49975 6.89914 5.48773L7.09297 5.39475L7.24369 5.54806C7.26322 5.56791 7.29676 5.55148 7.29305 5.52392L7.26453 5.31082L7.4569 5.21485C7.48182 5.20242 7.47657 5.16544 7.44919 5.16042L7.23772 5.12171L7.20589 4.9091C7.20176 4.88159 7.16499 4.87514 7.15175 4.89964L7.04958 5.0888L6.83754 5.05336C6.8101 5.04877 6.79261 5.08177 6.81181 5.1019Z" fill="#F5F5F5"/>
<path d="M6.0808 4.93855L6.26539 5.04876L6.22089 5.25908C6.21512 5.28632 6.24735 5.30521 6.2683 5.28688L6.43014 5.14537L6.61642 5.25269C6.64053 5.26658 6.66845 5.24179 6.6575 5.21619L6.57294 5.01855L6.73257 4.87455C6.75324 4.85591 6.73829 4.82169 6.71057 4.82418L6.49646 4.84354L6.40885 4.64723C6.39751 4.6218 6.36034 4.62545 6.35415 4.65259L6.30639 4.86219L6.09261 4.88486C6.06491 4.88781 6.0569 4.92428 6.0808 4.93855Z" fill="#F5F5F5"/>
</svg>
