<svg width="80" height="80" viewBox="0 0 80 80" fill="none" xmlns="http://www.w3.org/2000/svg">
<g clip-path="url(#clip0)">
<path d="M78.8281 75.2027H67.556C66.9087 75.2027 66.3842 75.7272 66.3842 76.3746C66.3842 77.0219 66.9087 77.5464 67.556 77.5464H78.8281C79.4754 77.5464 79.9999 77.0219 79.9999 76.3746C79.9999 75.7272 79.4754 75.2027 78.8281 75.2027Z" fill="#FF7800"/>
<path d="M78.8281 57.1885C79.4755 57.1885 80 56.664 80 56.0167C80 55.3693 79.4755 54.8448 78.8281 54.8448H69.1234C68.4341 54.8448 67.7861 54.5084 67.39 53.9443C66.6534 52.8963 65.7527 51.9856 64.7125 51.2373C64.1874 50.8592 63.455 50.9785 63.0769 51.5042C62.6989 52.0295 62.8184 52.7618 63.3438 53.1398C64.1706 53.7348 64.8869 54.4588 65.4722 55.2915C66.3063 56.4795 67.6711 57.1885 69.1233 57.1885H78.8281Z" fill="#FF7800"/>
<path d="M62.0873 75.2027H25.8406C22.7267 75.2027 19.7075 73.9109 17.5569 71.6589L3.23125 56.6555C2.65906 56.0522 2.34375 55.2627 2.34375 54.4325C2.34375 53.5716 2.67969 52.7617 3.29 52.1512C3.89875 51.542 4.70797 51.2067 5.56953 51.2067C5.57406 51.2067 5.57859 51.2069 5.58297 51.2069C6.45031 51.2103 7.26266 51.5528 7.87156 52.1722L21.0247 65.5191C21.245 65.7425 21.5455 65.8683 21.8594 65.8683L49.792 65.8684C50.4394 65.8684 50.9639 65.3439 50.9639 64.6966C50.9639 64.0492 50.4394 63.5247 49.792 63.5247H35.6592C35.6581 63.5247 35.6572 63.5245 35.6562 63.5245C34.7937 63.5245 33.9875 63.1841 33.3859 62.5658C32.7847 61.9478 32.4666 61.1316 32.4903 60.2672C32.5363 58.5697 33.9972 57.1886 35.747 57.1886H46.9517C48.3806 57.1886 49.7333 56.4972 50.5689 55.3408L50.6736 55.1964C51.4978 54.0544 52.5936 53.1075 53.8433 52.4575C55.09 51.8076 56.4944 51.4525 57.9041 51.4308L58.0375 51.4294C58.3009 51.4294 58.5723 51.4416 58.8441 51.4653C59.4906 51.5237 60.0575 51.0455 60.1142 50.4009C60.1709 49.7561 59.6944 49.1875 59.0498 49.1308C58.7098 49.1008 58.3694 49.0856 58.0375 49.0856L57.8859 49.0872C57.8798 49.0872 57.8739 49.0872 57.8678 49.0873C56.095 49.1147 54.3288 49.5614 52.7608 50.3787C51.1892 51.1961 49.8103 52.3876 48.7747 53.8226L48.6703 53.9664C48.2728 54.5166 47.6303 54.845 46.9516 54.845H42.8255L66.5208 31.0125C69.7842 27.7483 71.5234 23.4084 71.4181 18.7922C71.3128 14.1794 69.3728 9.92093 65.9556 6.8014C62.9052 4.01671 58.9286 2.4728 54.7587 2.45374C54.7328 2.45374 54.7072 2.45358 54.6812 2.45358C50.5391 2.45358 46.5792 3.9603 43.5234 6.70093C42.1062 7.97311 40.9166 9.47437 40.008 11.1255C39.0991 9.47327 37.9091 7.97171 36.4919 6.70077C33.4363 3.96015 29.4769 2.45358 25.3345 2.45358C25.3088 2.45358 25.2825 2.45374 25.2569 2.45374C21.087 2.4728 17.1106 4.01671 14.06 6.8014C10.6428 9.92093 8.70281 14.1794 8.5975 18.7922C8.49219 23.4084 10.2314 27.7483 13.4925 31.0101L17.0941 34.6322C17.5505 35.0914 18.2925 35.0934 18.7513 34.6369C19.2103 34.1805 19.2123 33.4386 18.7559 32.9797L15.1522 29.3555C12.3458 26.5483 10.85 22.8158 10.9406 18.8458C11.0312 14.8787 12.7002 11.2162 15.6402 8.53233C21.0267 3.61499 29.4984 3.57655 34.927 8.44546C36.7302 10.0625 38.1048 12.1109 38.9028 14.3695C39.0683 14.838 39.5111 15.1511 40.0078 15.1511C40.5045 15.1511 40.9473 14.838 41.1127 14.3695C41.91 12.113 43.2848 10.0642 45.0886 8.4453C50.5172 3.57671 58.9889 3.61546 64.3755 8.53233C67.3155 11.2162 68.9844 14.8787 69.075 18.8458C69.1656 22.8158 67.6698 26.5483 64.8611 29.3576L40.0078 54.3547L22.6123 36.8578C22.1559 36.3987 21.4142 36.3967 20.955 36.8531C20.4961 37.3094 20.4939 38.0514 20.9502 38.5103L37.1902 54.845H35.7469C32.7392 54.845 30.2273 57.2491 30.1473 60.2036C30.1144 61.4087 30.4642 62.5608 31.1444 63.5247H22.3498L9.54203 50.5281C8.49266 49.4606 7.09 48.8694 5.59266 48.8633C5.58484 48.8633 5.57719 48.8631 5.56938 48.8631C4.08156 48.8631 2.68391 49.4422 1.6325 50.4944C0.579688 51.547 0 52.9455 0 54.4325C0 55.8656 0.54375 57.228 1.53359 58.2714L15.8617 73.2776C18.4523 75.9905 22.0895 77.5464 25.8405 77.5464H62.0872C62.7345 77.5464 63.2591 77.0219 63.2591 76.3745C63.2591 75.7272 62.7347 75.2027 62.0873 75.2027V75.2027Z" fill="#FF7800"/>
<path d="M43.3913 19.023H36.6244C35.9772 19.023 35.4526 19.5475 35.4526 20.1949V26.2127H29.4348C28.7876 26.2127 28.2629 26.7372 28.2629 27.3846V34.1514C28.2629 34.7988 28.7876 35.3233 29.4348 35.3233H35.4526V41.3413C35.4526 41.9886 35.9772 42.5131 36.6244 42.5131H43.3913C44.0387 42.5131 44.5632 41.9886 44.5632 41.3413V35.3233H50.5811C51.2285 35.3233 51.753 34.7988 51.753 34.1514V27.3844C51.753 26.7371 51.2285 26.2125 50.5811 26.2125H44.5632V20.1947C44.5632 19.5475 44.0387 19.023 43.3913 19.023V19.023ZM49.4093 28.5563V32.9794H43.3913C42.744 32.9794 42.2194 33.5039 42.2194 34.1513V40.1692H37.7963V34.1513C37.7963 33.5039 37.2716 32.9794 36.6244 32.9794H30.6066V28.5563H36.6244C37.2716 28.5563 37.7963 28.0317 37.7963 27.3844V21.3666H42.2194V27.3844C42.2194 28.0317 42.744 28.5563 43.3913 28.5563H49.4093Z" fill="#FF7800"/>
</g>
<defs>
<clipPath id="clip0">
<rect width="80" height="80" fill="white"/>
</clipPath>
</defs>
</svg>
