<svg width="80" height="80" viewBox="0 0 80 80" fill="none" xmlns="http://www.w3.org/2000/svg">
<path d="M70.5813 37.0719C67.8591 35.7109 62.7552 35.6952 62.5392 35.6952C61.8921 35.6952 61.3674 36.2198 61.3674 36.867C61.3674 37.5142 61.8921 38.0389 62.5392 38.0389C63.8563 38.0391 67.6802 38.2419 69.5332 39.1683C69.7014 39.2525 69.8802 39.2922 70.0563 39.2922C70.4861 39.2922 70.9 39.0547 71.1053 38.6442C71.3949 38.0653 71.1602 37.3614 70.5813 37.0719Z" fill="#FF7800"/>
<path d="M76.4237 53.7564L71.5839 52.3736C71.375 52.3139 71.2291 52.1204 71.2291 51.9031V50.2876C71.6228 50.0148 71.9984 49.7095 72.3495 49.3687C74.0511 47.7175 74.9881 45.5026 74.9881 43.132V40.9028L75.4561 39.967C75.9697 38.9397 76.2411 37.7895 76.2411 36.6411V30.602C76.2411 29.9548 75.7164 29.4301 75.0692 29.4301H63.7922C59.6916 29.4301 56.3553 32.7664 56.3553 36.867V36.9369C56.3553 37.8919 56.5811 38.8483 57.0081 39.7023L57.6083 40.9026V42.8167C57.6083 45.8501 59.1031 48.5719 61.3673 50.2097L61.3677 51.9028C61.3677 52.1639 61.3677 52.272 60.4 52.5486L58.0384 53.2233L51.207 50.7392C51.2316 50.4169 51.1228 50.089 50.8877 49.842L48.7047 47.5486V43.6986C48.9355 43.5084 49.163 43.3131 49.3834 43.1065C52.1373 40.5253 53.7167 36.8809 53.7167 33.108V30.0333C54.5483 28.2237 54.9697 26.3089 54.9697 24.3369V11.8072C54.9697 11.16 54.445 10.6353 53.7978 10.6353H36.2558C30.0823 10.6353 25.06 15.6578 25.06 21.8311V24.3372C25.06 26.3092 25.4814 28.224 26.313 30.0336V32.679C26.313 37.0597 28.2608 41.0062 31.325 43.6081V47.5487L29.142 49.8422C28.9069 50.0892 28.7981 50.417 28.8227 50.7394L21.6125 53.3611C21.09 53.5511 20.6045 53.8084 20.1638 54.1201L19.0316 53.554C22.4019 52.087 23.4695 50.0237 23.5208 49.9212C23.6858 49.5914 23.6858 49.2029 23.5208 48.8731C22.6759 47.1834 22.5736 44.0864 22.4914 41.5979C22.4641 40.7695 22.4381 39.9869 22.3886 39.29C21.9891 33.669 17.7159 29.4301 12.4487 29.4301C7.18156 29.4301 2.90828 33.6689 2.50891 39.29C2.45937 39.987 2.43344 40.7697 2.40609 41.5983C2.32391 44.0865 2.22141 47.1833 1.37672 48.8729C1.21172 49.2028 1.21172 49.5912 1.37672 49.9211C1.42797 50.0236 2.49344 52.0826 5.87047 53.5514L2.72563 55.1237C1.04438 55.965 0 57.6548 0 59.5344V68.192C0 68.8392 0.524687 69.3639 1.17188 69.3639C1.81906 69.3639 2.34375 68.8392 2.34375 68.192V59.5344C2.34375 58.5481 2.89172 57.6614 3.77375 57.2203L7.68984 55.2623L9.05203 56.5569C10.0045 57.462 11.2264 57.9144 12.4487 57.9144C13.6708 57.9144 14.8933 57.4617 15.8455 56.5569L17.2075 55.2625L18.4844 55.9009C17.8831 56.8629 17.5419 57.9911 17.5419 59.1728V68.1923C17.5419 68.8395 18.0666 69.3642 18.7137 69.3642C19.3609 69.3642 19.8856 68.8395 19.8856 68.1923V59.1728C19.8856 57.564 20.9014 56.1137 22.4134 55.5639L30.0153 52.7997L33.1798 57.5467C33.5844 58.1536 34.2327 58.5428 34.9584 58.6147C35.0394 58.6226 35.1198 58.6265 35.2002 58.6265C35.8405 58.6265 36.4538 58.3745 36.9122 57.9162L38.8428 55.9856V68.1925C38.8428 68.8397 39.3675 69.3644 40.0147 69.3644C40.6619 69.3644 41.1866 68.8397 41.1866 68.1925V55.9856L43.1172 57.9162C43.5755 58.3747 44.1888 58.6267 44.8292 58.6267C44.9094 58.6267 44.99 58.6228 45.0708 58.6148C45.7967 58.543 46.445 58.1537 46.8495 57.5469L50.0142 52.8L57.6159 55.5642C59.1278 56.114 60.1438 57.5644 60.1438 59.1731V68.1926C60.1438 68.8398 60.6684 69.3645 61.3156 69.3645C61.9628 69.3645 62.4875 68.8398 62.4875 68.1926V59.1731C62.4875 57.5437 61.8402 56.0156 60.7542 54.8854L61.0437 54.8028C61.3358 54.7194 61.7342 54.6051 62.1342 54.409L65.1263 57.4011V68.1926C65.1263 68.8398 65.6509 69.3645 66.2981 69.3645C66.9453 69.3645 67.47 68.8398 67.47 68.1926V57.4011L70.4413 54.4298C70.5992 54.5101 70.7652 54.578 70.9398 54.6278L75.7798 56.0106C76.8845 56.3262 77.6562 57.3492 77.6562 58.4983V68.1926C77.6562 68.8398 78.1809 69.3645 78.8281 69.3645C79.4753 69.3645 80 68.8398 80 68.1926V58.4983C80 56.308 78.5294 54.3581 76.4237 53.7564ZM7.51797 51.6865C5.32594 50.8978 4.22641 49.8462 3.75703 49.272C4.07703 48.4355 4.28453 47.4773 4.425 46.4659C5.07125 48.0154 6.15359 49.3383 7.51797 50.282V51.6865ZM14.2313 54.8581C13.2317 55.8078 11.6659 55.8076 10.6667 54.858L9.57687 53.8223C9.76078 53.4778 9.86188 53.0872 9.86188 52.678V51.4289C10.6794 51.6844 11.5484 51.8222 12.4491 51.8222C13.3486 51.8222 14.2172 51.6837 15.0361 51.4297L15.0359 52.6778C15.0359 53.0872 15.1369 53.4779 15.3209 53.8226L14.2313 54.8581ZM12.4494 49.4784C8.95 49.4784 6.10328 46.6315 6.10328 43.1323C6.10328 42.4851 5.57859 41.9605 4.93141 41.9605C4.86578 41.9605 4.80172 41.9672 4.73906 41.9776C4.7425 41.8769 4.74578 41.7759 4.74922 41.6761C4.77531 40.8703 4.80047 40.1092 4.84688 39.4564C4.99656 37.3508 5.83797 35.4105 7.21609 33.9926C8.60656 32.562 10.465 31.7742 12.4491 31.7742C14.4331 31.7742 16.2914 32.562 17.682 33.9926C19.0602 35.4105 19.9016 37.3508 20.0513 39.4564C20.0975 40.109 20.1228 40.87 20.1494 41.6756C20.1517 41.7448 20.1541 41.815 20.1564 41.8847C18.8814 39.9203 16.9123 38.4726 14.3681 37.6551C12.0177 36.9 9.99609 36.9467 9.91078 36.9489C9.60391 36.9575 9.31266 37.0859 9.09969 37.3069L6.98531 39.4997C6.53609 39.9656 6.54953 40.7075 7.01547 41.1567C7.48141 41.6059 8.22328 41.5923 8.6725 41.1265L10.4319 39.302C11.947 39.3761 16.8216 39.943 18.7173 44.1175C18.2403 47.1937 15.5963 49.4784 12.4494 49.4784ZM17.3795 51.6905L17.3797 50.2928C18.743 49.3542 19.8269 48.0339 20.4736 46.4726C20.6141 47.4817 20.8214 48.4376 21.1408 49.2723C20.6741 49.8411 19.5694 50.902 17.3795 51.6905ZM28.6567 32.6789V29.7714C28.6567 29.595 28.6169 29.4208 28.5402 29.2619C27.7861 27.7003 27.4038 26.0434 27.4038 24.3372V21.8312C27.4038 16.9501 31.3748 12.9792 36.2558 12.9792H52.6259V24.3373C52.6259 26.0436 52.2436 27.7005 51.4895 29.262C51.4128 29.4209 51.373 29.5951 51.373 29.7715V33.1083C51.373 36.2819 50.0972 39.2255 47.7806 41.3969C47.4914 41.6678 47.1912 41.9219 46.8809 42.1586C46.8741 42.1633 46.8675 42.1684 46.8608 42.1733C44.6906 43.8209 42.0325 44.6217 39.2566 44.4419C33.3127 44.057 28.6567 38.8901 28.6567 32.6789ZM35.255 56.2587C35.2469 56.2669 35.228 56.2861 35.1897 56.282C35.1516 56.2783 35.1366 56.2559 35.1302 56.2462L31.4856 50.7794L32.6584 49.547L38.1873 53.3262L35.255 56.2587ZM40.0148 51.7364L33.6687 47.3986V45.2111C35.3108 46.0987 37.1494 46.6539 39.1048 46.7804C39.4137 46.8004 39.7208 46.8103 40.0269 46.8103C42.2677 46.8103 44.4242 46.2747 46.3609 45.258V47.3986L40.0148 51.7364ZM44.8995 56.2465C44.8931 56.2562 44.8781 56.2786 44.84 56.2823C44.8017 56.2872 44.783 56.267 44.7747 56.259L41.8423 53.3267L47.3712 49.5473L48.5442 50.7797L44.8995 56.2465ZM66.2981 55.2578L63.6387 52.5986C63.6852 52.3878 63.7114 52.157 63.7113 51.9025L63.7111 51.4079C64.4491 51.6501 65.2269 51.7939 66.0317 51.818C66.122 51.8208 66.2116 51.822 66.3016 51.822C67.1909 51.822 68.0591 51.6876 68.8853 51.4312V51.9031C68.8853 52.1369 68.9147 52.3659 68.97 52.5861L66.2981 55.2578ZM70.7173 47.6869C69.4753 48.8922 67.8345 49.5287 66.1022 49.4753C62.7109 49.3736 59.952 46.3865 59.952 42.817V40.6262C59.952 40.4442 59.9097 40.2648 59.8283 40.1022L59.1044 38.6544C58.8392 38.1239 58.6991 37.5301 58.6991 36.937V36.8672C58.6991 34.0587 60.9839 31.774 63.7922 31.774H73.8973V36.6412C73.8973 37.4278 73.7114 38.2155 73.3597 38.919L72.7681 40.1022C72.6867 40.265 72.6444 40.4442 72.6444 40.6262V43.1322C72.6444 44.8634 71.96 46.4809 70.7173 47.6869Z" fill="#FF7800"/>
<path d="M73.8162 59.5022C73.169 59.5022 72.6443 60.0269 72.6443 60.6741V68.192C72.6443 68.8392 73.169 69.3639 73.8162 69.3639C74.4633 69.3639 74.988 68.8392 74.988 68.192V60.6741C74.988 60.027 74.4633 59.5022 73.8162 59.5022Z" fill="#FF7800"/>
<path d="M6.18384 61.0513C5.53665 61.0513 5.01196 61.5759 5.01196 62.2231V68.192C5.01196 68.8392 5.53665 69.3639 6.18384 69.3639C6.83103 69.3639 7.35571 68.8392 7.35571 68.192V62.2231C7.35571 61.5761 6.83103 61.0513 6.18384 61.0513Z" fill="#FF7800"/>
<path d="M49.6144 24.7617C45.1822 20.3295 35.9089 21.1769 32.1274 21.7469C30.9363 21.9264 30.0719 22.9344 30.0719 24.1436V26.8433C30.0719 27.4905 30.5966 28.0151 31.2438 28.0151C31.891 28.0151 32.4157 27.4905 32.4157 26.8433V24.1434C32.4157 24.1036 32.4419 24.0695 32.4769 24.0642C33.9874 23.8366 36.9847 23.4853 40.0902 23.6923C43.7446 23.9356 46.3914 24.853 47.9572 26.4189C48.4149 26.8766 49.1569 26.8766 49.6144 26.4189C50.0721 25.9612 50.0721 25.2192 49.6144 24.7617Z" fill="#FF7800"/>
<path d="M26.2318 62.0083C25.5846 62.0083 25.0599 62.533 25.0599 63.1802V68.1922C25.0599 68.8394 25.5846 69.3641 26.2318 69.3641C26.879 69.3641 27.4037 68.8394 27.4037 68.1922V63.1802C27.4037 62.5331 26.879 62.0083 26.2318 62.0083Z" fill="#FF7800"/>
<path d="M53.7978 62.0083C53.1506 62.0083 52.6259 62.533 52.6259 63.1802V68.1922C52.6259 68.8394 53.1506 69.3641 53.7978 69.3641C54.445 69.3641 54.9697 68.8394 54.9697 68.1922V63.1802C54.9697 62.5331 54.445 62.0083 53.7978 62.0083Z" fill="#FF7800"/>
</svg>
