<svg width="80" height="80" viewBox="0 0 80 80" fill="none" xmlns="http://www.w3.org/2000/svg">
<g clip-path="url(#clip0)">
<path d="M10.1776 4.89136C8.13293 4.89136 6.46912 6.55518 6.46912 8.59985C6.46912 10.6445 8.13293 12.3077 10.1776 12.3077C12.2223 12.3077 13.8855 10.6439 13.8855 8.59924C13.8855 6.55457 12.2223 4.89136 10.1776 4.89136V4.89136ZM10.1776 9.9408C9.43787 9.9408 8.83606 9.33899 8.83606 8.59924C8.83606 7.86011 9.43787 7.2583 10.1776 7.2583C10.9167 7.2583 11.5186 7.86011 11.5186 8.59924C11.5186 9.33899 10.9167 9.9408 10.1776 9.9408Z" fill="#FF7800"/>
<path d="M20.1184 4.89136C18.0737 4.89136 16.4099 6.55518 16.4099 8.59985C16.4099 10.6445 18.0737 12.3077 20.1184 12.3077C22.1631 12.3077 23.8263 10.6445 23.8263 8.59985C23.8263 6.55518 22.1631 4.89136 20.1184 4.89136V4.89136ZM20.1184 9.9408C19.3787 9.9408 18.7769 9.33899 18.7769 8.59924C18.7769 7.86011 19.3787 7.2583 20.1184 7.2583C20.8575 7.2583 21.4594 7.86011 21.4594 8.59924C21.4594 9.33899 20.8575 9.9408 20.1184 9.9408Z" fill="#FF7800"/>
<path d="M30.0592 4.89136C28.0145 4.89136 26.3513 6.55518 26.3513 8.59985C26.3513 10.6445 28.0145 12.3077 30.0592 12.3077C32.1039 12.3077 33.7671 10.6445 33.7671 8.59985C33.7671 6.55518 32.1039 4.89136 30.0592 4.89136V4.89136ZM30.0592 9.9408C29.3195 9.9408 28.7183 9.33899 28.7183 8.59924C28.7183 7.86011 29.3195 7.2583 30.0592 7.2583C30.799 7.2583 31.4008 7.86011 31.4008 8.59924C31.4008 9.33899 30.7983 9.9408 30.0592 9.9408Z" fill="#FF7800"/>
<path d="M75.661 0H4.33899C1.94641 0 0 1.94641 0 4.33899V56.568C0 58.9606 1.94641 60.907 4.33899 60.907H11.9733C11.6107 61.3715 11.6425 62.0435 12.0697 62.4707L17.7557 68.1567C17.3297 69.0308 16.9568 69.931 16.6394 70.8478H8.59924C7.94617 70.8478 7.41638 71.3776 7.41638 72.0312V78.8165C7.41638 79.4702 7.94617 80 8.59924 80H31.9525C32.6062 80 33.136 79.4702 33.136 78.8165C33.136 75.2057 36.0736 72.2681 39.6844 72.2681C43.2947 72.2681 46.2323 75.2057 46.2323 78.8165C46.2323 79.4702 46.7621 80 47.4158 80H70.769C71.4227 80 71.9525 79.4702 71.9525 78.8165V72.0312C71.9525 71.3776 71.4227 70.8478 70.769 70.8478H62.7289C62.4115 69.931 62.0386 69.0308 61.6125 68.1567L67.2992 62.4707C67.7258 62.0435 67.7576 61.3715 67.395 60.907H75.6604C78.053 60.907 79.9994 58.9606 79.9994 56.568V27.2913C79.9994 26.6376 79.4696 26.1078 78.8165 26.1078C78.1628 26.1078 77.6331 26.6376 77.6331 27.2913V56.568C77.6331 57.6556 76.748 58.54 75.6604 58.54H65.0421L58.067 51.5649V43.4711C58.067 42.8174 57.5366 42.2876 56.8835 42.2876H54.7534V34.9951L56.4233 33.4534C56.759 33.1433 56.8866 32.6685 56.7511 32.2327L53.9111 23.0811C53.7573 22.5861 53.299 22.2485 52.7808 22.2485H49.6246C49.1064 22.2485 48.6481 22.5861 48.4943 23.0811L45.6543 32.2327C45.5188 32.6685 45.6464 33.1433 45.9821 33.4534L47.6526 34.9951V42.2876H45.5225C44.8688 42.2876 44.339 42.8174 44.339 43.4711V46.5479H35.0293V44.7504L39.574 40.2057C39.7961 39.9835 39.9207 39.6826 39.9207 39.3689V29.6643C39.9207 29.3481 39.7937 29.0448 39.5685 28.8226L33.2574 22.5897C32.9175 22.254 32.4097 22.1558 31.9696 22.3395C31.5289 22.5238 31.2421 22.9541 31.2421 23.4314V33.9813L28.1653 35.9186L25.0885 33.9813V33.3069C25.0885 32.6532 24.5587 32.1234 23.905 32.1234C23.2513 32.1234 22.7216 32.6532 22.7216 33.3069V34.6344C22.7216 35.0415 22.9303 35.4193 23.2745 35.636L27.5348 38.3185C27.9199 38.5614 28.4106 38.5614 28.7958 38.3185L33.056 35.636C33.4003 35.4193 33.609 35.0415 33.609 34.6344V26.2634L37.5537 30.1587V38.8782L33.009 43.4229C32.7869 43.645 32.6624 43.9459 32.6624 44.2603V46.5717C32.1222 46.6815 31.7157 47.1588 31.7157 47.7313V55.7715C30.7983 56.0883 29.8987 56.4618 29.024 56.8872L23.6682 51.5314V44.2603C23.6682 43.9459 23.5437 43.645 23.3215 43.4229L18.7769 38.8782V30.1587L22.7216 26.2634V27.7643C22.7216 28.418 23.2513 28.9478 23.905 28.9478C24.5587 28.9478 25.0885 28.418 25.0885 27.7643V23.432C25.0885 22.9541 24.8016 22.5238 24.361 22.3401C23.9209 22.1558 23.4131 22.2546 23.0731 22.5897L16.7615 28.8226C16.5363 29.0448 16.4099 29.3481 16.4099 29.6643V39.3689C16.4099 39.6826 16.5344 39.9835 16.7566 40.2057L21.3013 44.7504V51.5649L14.3262 58.54H4.33899C3.25134 58.54 2.36694 57.6556 2.36694 56.568V17.1991H77.6331V21.778C77.6331 22.431 78.1628 22.9608 78.8165 22.9608C79.4702 22.9608 80 22.431 80 21.778V4.33899C80 1.94641 78.0536 0 75.661 0V0ZM49.6387 33.6078L48.1366 32.2211L50.4974 24.6155H51.9092L54.2694 32.2211L52.7673 33.6078C52.525 33.8318 52.3865 34.1467 52.3865 34.4775V42.2882H50.0201V34.4775C50.0195 34.1467 49.8816 33.8318 49.6387 33.6078V33.6078ZM55.7001 44.6545V51.532L50.3442 56.8878C49.4696 56.4624 48.5699 56.0889 47.6526 55.7715V47.7319C47.6526 47.1594 47.2461 46.6821 46.7059 46.5723V44.6552H55.7001V44.6545ZM29.3524 59.3768C30.5945 58.7152 31.9043 58.172 33.2452 57.7625C33.7427 57.6105 34.0826 57.1509 34.0826 56.6302V48.9148H45.2856V56.6302C45.2856 57.1509 45.6262 57.6105 46.1237 57.7625C47.4646 58.172 48.7744 58.7152 50.0165 59.3768C50.4761 59.6216 51.0413 59.5374 51.4099 59.1693L56.8671 53.7122L63.7146 60.5603C63.7152 60.5603 63.7152 60.5609 63.7158 60.5615L64.7888 61.6339L59.3317 67.0911C58.9636 67.4591 58.8794 68.0249 59.1241 68.4845C59.7858 69.726 60.329 71.0358 60.7385 72.3773C60.8905 72.8748 61.3501 73.2147 61.8701 73.2147H69.5856V77.6331H57.5537C56.9421 68.3075 49.162 60.9076 39.6844 60.9076C37.1503 60.9076 34.7009 61.4264 32.4036 62.4493C31.8066 62.7155 31.5381 63.4149 31.8042 64.0125C32.0697 64.6094 32.7704 64.8773 33.3667 64.6118C35.3589 63.7244 37.4841 63.2745 39.6844 63.2745C47.8564 63.2745 54.5758 69.6136 55.1819 77.6331H48.5211C47.9407 73.2751 44.1992 69.9017 39.6844 69.9017C35.1697 69.9017 31.4282 73.2751 30.8478 77.6331H24.1858C24.4733 73.7469 26.1768 70.1764 29.0552 67.4768C29.5319 67.03 29.5563 66.2811 29.1089 65.8038C28.6621 65.3278 27.9132 65.3033 27.4365 65.7501C24.1272 68.8531 22.1179 73.1311 21.8164 77.6331H9.78271V73.2147H17.4982C18.0188 73.2147 18.4784 72.8748 18.6304 72.3773C19.0399 71.0358 19.5831 69.726 20.2448 68.4845C20.4895 68.0249 20.4053 67.4591 20.0372 67.0911L14.5801 61.6339L15.6531 60.5615C15.6531 60.5609 15.6537 60.5603 15.6543 60.5603L22.5018 53.7122L27.959 59.1693C28.327 59.5374 28.8928 59.6216 29.3524 59.3768V59.3768ZM2.36694 14.8322V4.33899C2.36694 3.25134 3.25195 2.36694 4.33899 2.36694H75.661C76.7487 2.36694 77.6331 3.25195 77.6331 4.33899V14.8322H2.36694Z" fill="#FF7800"/>
</g>
<defs>
<clipPath id="clip0">
<rect width="80" height="80" fill="white"/>
</clipPath>
</defs>
</svg>
