<svg width="80" height="80" viewBox="0 0 80 80" fill="none" xmlns="http://www.w3.org/2000/svg">
<path d="M11.875 64.7955C12.5222 64.7955 13.0469 64.2709 13.0469 63.6236V36.7297H13.5277C14.1748 36.7297 14.6995 36.2052 14.6995 35.5578V23.4723C14.6995 22.825 14.1748 22.3005 13.5277 22.3005H13.0469V4.44187C13.0469 3.28484 13.988 2.34375 15.145 2.34375H43.9311C44.5783 2.34375 45.103 1.81922 45.103 1.17188C45.103 0.524531 44.5783 0 43.9311 0H15.145C12.6956 0 10.7031 1.99266 10.7031 4.44187V23.4725C10.7031 24.1198 11.2278 24.6444 11.875 24.6444H12.3558V34.3861H11.875C11.2278 34.3861 10.7031 34.9106 10.7031 35.558V63.6237C10.7031 64.2709 11.2278 64.7955 11.875 64.7955V64.7955Z" fill="#FF7800"/>
<path d="M68.125 24.6444C68.7722 24.6444 69.2969 24.1198 69.2969 23.4725V15.6653C69.2969 15.3545 69.1734 15.0566 68.9536 14.8366L54.4603 0.343125C54.2406 0.123438 53.9425 0 53.6317 0H49.4109C48.7638 0 48.2391 0.524531 48.2391 1.17188C48.2391 1.81922 48.7638 2.34375 49.4109 2.34375H53.1464L66.9533 16.1506V22.3005H66.4727C65.8255 22.3005 65.3008 22.825 65.3008 23.4723V35.5578C65.3008 36.2052 65.8255 36.7297 66.4727 36.7297H66.9533V75.5581C66.9533 76.715 66.0122 77.6562 64.8552 77.6562H15.145C13.9881 77.6562 13.0469 76.7152 13.0469 75.5581V69.1259C13.0469 68.4786 12.5222 67.9541 11.875 67.9541C11.2278 67.9541 10.7031 68.4786 10.7031 69.1259V75.5581C10.7031 78.0073 12.6956 80 15.145 80H64.8552C67.3044 80 69.297 78.0073 69.297 75.5581V35.5578C69.297 34.9105 68.7724 34.3859 68.1252 34.3859H67.6445V24.6442H68.125V24.6444Z" fill="#FF7800"/>
<path d="M52.0066 63.9826C52.6538 63.9826 53.1785 63.4581 53.1785 62.8108V35.8973C53.1785 35.25 52.6538 34.7254 52.0066 34.7254H18.9313C18.2841 34.7254 17.7594 35.25 17.7594 35.8973V71.8637C17.7594 72.5111 18.2841 73.0356 18.9313 73.0356H52.0068C52.654 73.0356 53.1787 72.5111 53.1787 71.8637V68.1983C53.1787 67.5509 52.654 67.0264 52.0068 67.0264C51.3596 67.0264 50.8349 67.5509 50.8349 68.1983V70.6919H42.1096V61.1461H45.913C47.8104 61.1461 49.5394 60.4142 50.8349 59.219V62.8108C50.8347 63.4581 51.3594 63.9826 52.0066 63.9826ZM50.8347 48.5419C49.5393 47.3467 47.8102 46.6148 45.9129 46.6148H42.1096V37.0692H50.8347V48.5419ZM31.1721 46.6148V37.0692H39.7658V46.6148H31.1721ZM28.8283 37.0692V46.6148H25.0249C23.1276 46.6148 21.3985 47.3467 20.103 48.5419V37.0692H28.8283ZM20.1032 59.219C21.3986 60.4142 23.1277 61.1461 25.0251 61.1461H28.8283V70.6919H20.1032V59.219ZM39.7658 70.6919H31.1721V61.1461H39.7658V70.6919ZM45.913 58.8023H25.0249C22.311 58.8023 20.103 56.5943 20.103 53.8804C20.103 51.1665 22.311 48.9586 25.0249 48.9586H45.913C48.6269 48.9586 50.8349 51.1665 50.8349 53.8804C50.8349 56.5943 48.6268 58.8023 45.913 58.8023Z" fill="#FF7800"/>
<path d="M18.9313 26.6428C19.5785 26.6428 20.1032 26.1183 20.1032 25.4709V8.11218C20.1032 7.46484 19.5785 6.94031 18.9313 6.94031C18.2841 6.94031 17.7594 7.46484 17.7594 8.11218V25.4709C17.7594 26.1181 18.2841 26.6428 18.9313 26.6428V26.6428Z" fill="#FF7800"/>
<path d="M37.4998 18.6967C38.1469 18.6967 38.6716 18.1722 38.6716 17.5248V8.11218C38.6716 7.46484 38.1469 6.94031 37.4998 6.94031C36.8526 6.94031 36.3279 7.46484 36.3279 8.11218V17.5248C36.3279 18.1722 36.8526 18.6967 37.4998 18.6967Z" fill="#FF7800"/>
<path d="M36.3279 25.4709C36.3279 26.1183 36.8526 26.6428 37.4998 26.6428C38.1469 26.6428 38.6716 26.1183 38.6716 25.4709V22.9106C38.6716 22.2633 38.1469 21.7388 37.4998 21.7388C36.8526 21.7388 36.3279 22.2633 36.3279 22.9106V25.4709Z" fill="#FF7800"/>
<path d="M26.2542 22.3459V8.11218C26.2542 7.46484 25.7295 6.94031 25.0823 6.94031C24.4351 6.94031 23.9104 7.46484 23.9104 8.11218V22.3459C23.9104 22.9933 24.4351 23.5178 25.0823 23.5178C25.7295 23.5178 26.2542 22.9931 26.2542 22.3459Z" fill="#FF7800"/>
<path d="M44.7654 22.3459V8.11218C44.7654 7.46484 44.2407 6.94031 43.5935 6.94031C42.9463 6.94031 42.4216 7.46484 42.4216 8.11218V22.3459C42.4216 22.9933 42.9463 23.5178 43.5935 23.5178C44.2407 23.5178 44.7654 22.9931 44.7654 22.3459Z" fill="#FF7800"/>
<path d="M32.3991 25.4709V8.11218C32.3991 7.46484 31.8745 6.94031 31.2273 6.94031C30.5801 6.94031 30.0554 7.46484 30.0554 8.11218V25.4709C30.0554 26.1183 30.5801 26.6428 31.2273 26.6428C31.8745 26.6428 32.3991 26.1181 32.3991 25.4709Z" fill="#FF7800"/>
</svg>
