<svg width="80" height="80" viewBox="0 0 80 80" fill="none" xmlns="http://www.w3.org/2000/svg">
<g clip-path="url(#clip0)">
<path d="M76 0H4C1.79086 0 0 1.79086 0 4V58.6667C0 60.8758 1.79086 62.6667 4 62.6667H22.6667V66.7733C18.0788 67.4355 14.6721 71.3646 14.6667 76V77.3333C14.6667 78.8061 15.8606 80 17.3333 80H62.6667C64.1394 80 65.3333 78.8061 65.3333 77.3333V76C65.3279 71.3646 61.9212 67.4355 57.3333 66.7733V62.6667H59.7333C60.4697 62.6667 61.0667 62.0697 61.0667 61.3333C61.0667 60.597 60.4697 60 59.7333 60H4C3.26362 60 2.66667 59.403 2.66667 58.6667V54.6667H8C8.73638 54.6667 9.33333 54.0697 9.33333 53.3333C9.33333 52.597 8.73638 52 8 52H2.66667V4C2.66667 3.26362 3.26362 2.66667 4 2.66667H76C76.7364 2.66667 77.3333 3.26362 77.3333 4V42.0267C77.3333 42.763 77.9303 43.36 78.6667 43.36C79.403 43.36 80 42.763 80 42.0267V4C80 1.79086 78.2091 0 76 0V0ZM54.6667 62.6667V66.6667H38.6667C37.9303 66.6667 37.3333 67.2636 37.3333 68C37.3333 68.7364 37.9303 69.3333 38.6667 69.3333H56C59.6801 69.3377 62.6623 72.3199 62.6667 76V77.3333H17.3333V76C17.3377 72.3199 20.3199 69.3377 24 69.3333H30.6667C31.403 69.3333 32 68.7364 32 68C32 67.2636 31.403 66.6667 30.6667 66.6667H25.3333V62.6667H54.6667Z" fill="#FF7800"/>
<path d="M7.99998 12V8H12C12.7364 8 13.3333 7.40304 13.3333 6.66666C13.3333 5.93028 12.7364 5.33333 12 5.33333H6.66665C5.93027 5.33333 5.33331 5.93028 5.33331 6.66666V12C5.33331 12.7364 5.93027 13.3333 6.66665 13.3333C7.40303 13.3333 7.99998 12.7364 7.99998 12Z" fill="#FF7800"/>
<path d="M14.6666 54.6667H55.4533C56.1897 54.6667 56.7866 54.0697 56.7866 53.3334C56.7866 52.597 56.1897 52 55.4533 52H14.6666C13.9303 52 13.3333 52.597 13.3333 53.3334C13.3333 54.0697 13.9303 54.6667 14.6666 54.6667V54.6667Z" fill="#FF7800"/>
<path d="M10.6667 44H38.6667C40.8758 44 42.6667 42.2091 42.6667 40V20C42.6667 17.7909 40.8758 16 38.6667 16H33.3334V13.3333C33.3289 9.65325 30.3468 6.67106 26.6667 6.66666H22.6667C18.9866 6.67106 16.0044 9.65325 16 13.3333V16H10.6667C8.45755 16 6.66669 17.7909 6.66669 20V40C6.66669 42.2091 8.45755 44 10.6667 44ZM18.6667 13.3333C18.6667 11.1242 20.4575 9.33332 22.6667 9.33332H26.6667C28.8758 9.33332 30.6667 11.1242 30.6667 13.3333V16H18.6667V13.3333ZM9.33335 20C9.33335 19.2636 9.93031 18.6667 10.6667 18.6667H14.6667V37.3333C14.6667 38.0697 15.2636 38.6667 16 38.6667C16.7364 38.6667 17.3334 38.0697 17.3334 37.3333V18.6667H38.6667C39.4031 18.6667 40 19.2636 40 20V40C40 40.7364 39.4031 41.3333 38.6667 41.3333H34.6667V22.6667C34.6667 21.9303 34.0697 21.3333 33.3334 21.3333C32.597 21.3333 32 21.9303 32 22.6667V41.3333H10.6667C9.93031 41.3333 9.33335 40.7364 9.33335 40V20Z" fill="#FF7800"/>
<path d="M68.052 36.92C68.6713 37.3184 69.4962 37.1393 69.8946 36.52C73.8529 30.3444 72.0794 22.1313 65.9256 18.1392C59.7717 14.1472 51.549 15.8756 47.5233 22.0075C43.4976 28.1393 45.1809 36.3714 51.2906 40.4307C51.6877 40.7184 52.2107 40.765 52.6524 40.5519C53.0941 40.3389 53.3831 39.9005 53.405 39.4106C53.427 38.9207 53.1782 38.4583 52.7573 38.2067C47.8719 34.9577 46.5276 28.3732 49.7484 23.4692C52.9691 18.5652 59.5458 17.183 64.4682 20.3755C69.3907 23.568 70.8108 30.1366 67.6466 35.0773C67.4558 35.3754 67.3913 35.7371 67.4674 36.0827C67.5434 36.4283 67.7537 36.7295 68.052 36.92V36.92Z" fill="#FF7800"/>
<path d="M58.6667 36C59.4031 36 60.0001 35.403 60.0001 34.6667V30.6747H64.0001C64.7364 30.6747 65.3334 30.0777 65.3334 29.3413C65.3334 28.605 64.7364 28.008 64.0001 28.008H60.0001V24C60.0001 23.2636 59.4031 22.6667 58.6667 22.6667C57.9303 22.6667 57.3334 23.2636 57.3334 24V28.008H53.3334C52.597 28.008 52.0001 28.605 52.0001 29.3413C52.0001 30.0777 52.597 30.6747 53.3334 30.6747H57.3334V34.6667C57.3334 35.403 57.9303 36 58.6667 36Z" fill="#FF7800"/>
<path d="M74.14 50.104L75.5746 48.952C76.3269 48.3453 76.7095 47.3909 76.5846 46.4325C76.4597 45.4742 75.8453 44.6497 74.9626 44.256L59.8813 37.5734C58.9009 37.1422 57.7596 37.3157 56.9516 38.0187C56.1436 38.7218 55.8139 39.828 56.1053 40.8587L60.4147 56.2027C60.664 57.0958 61.3451 57.8039 62.2278 58.0879C63.1105 58.3718 64.0767 58.1936 64.8 57.6134L67.568 55.3867L73.1426 61.7334C73.6485 62.305 74.3677 62.6427 75.1306 62.6667H75.2146C75.9491 62.6656 76.653 62.3731 77.172 61.8534L79.2 59.82C80.2215 58.7855 80.2755 57.1393 79.324 56.04L74.14 50.104ZM77.3026 57.94L75.2813 59.972H75.148L68.732 52.6667C68.2608 52.1305 67.4508 52.0606 66.8947 52.508L63.132 55.5334L62.9813 55.48L58.6733 40.1334L58.8067 40L73.8867 46.684L73.908 46.8627L71.3933 48.8854C71.1108 49.1127 70.933 49.4454 70.9011 49.8067C70.8691 50.1679 70.9857 50.5266 71.224 50.8L77.312 57.7827C77.3325 57.8044 77.3432 57.8336 77.3414 57.8634C77.3396 57.8932 77.3256 57.9209 77.3026 57.94V57.94Z" fill="#FF7800"/>
</g>
<defs>
<clipPath id="clip0">
<rect width="80" height="80" fill="white"/>
</clipPath>
</defs>
</svg>
