<svg width="80" height="80" viewBox="0 0 80 80" fill="none" xmlns="http://www.w3.org/2000/svg">
<path d="M46.25 67.5H43.75V55.25C43.75 54.9185 43.6183 54.6005 43.3839 54.3661C43.1495 54.1317 42.8315 54 42.5 54C42.1685 54 41.8505 54.1317 41.6161 54.3661C41.3817 54.6005 41.25 54.9185 41.25 55.25V67.5H8.75V42.5H19.15C19.4815 42.5 19.7995 42.3683 20.0339 42.1339C20.2683 41.8995 20.4 41.5815 20.4 41.25C20.4 40.9185 20.2683 40.6005 20.0339 40.3661C19.7995 40.1317 19.4815 40 19.15 40H7.5C7.16848 40 6.85054 40.1317 6.61612 40.3661C6.3817 40.6005 6.25 40.9185 6.25 41.25V67.5H3.75C3.41848 67.5 3.10054 67.6317 2.86612 67.8661C2.6317 68.1005 2.5 68.4185 2.5 68.75V71.25C2.5 72.9076 3.15848 74.4973 4.33058 75.6694C5.50269 76.8415 7.0924 77.5 8.75 77.5H41.25C42.9076 77.5 44.4973 76.8415 45.6694 75.6694C46.8415 74.4973 47.5 72.9076 47.5 71.25V68.75C47.5 68.4185 47.3683 68.1005 47.1339 67.8661C46.8995 67.6317 46.5815 67.5 46.25 67.5ZM45 71.25C45 72.2446 44.6049 73.1984 43.9016 73.9016C43.1984 74.6049 42.2446 75 41.25 75H38.75V73.75C38.75 73.4185 38.6183 73.1005 38.3839 72.8661C38.1495 72.6317 37.8315 72.5 37.5 72.5C37.1685 72.5 36.8505 72.6317 36.6161 72.8661C36.3817 73.1005 36.25 73.4185 36.25 73.75V75H13.75V73.75C13.75 73.4185 13.6183 73.1005 13.3839 72.8661C13.1495 72.6317 12.8315 72.5 12.5 72.5C12.1685 72.5 11.8505 72.6317 11.6161 72.8661C11.3817 73.1005 11.25 73.4185 11.25 73.75V75H8.75C7.75544 75 6.80161 74.6049 6.09835 73.9016C5.39509 73.1984 5 72.2446 5 71.25V70H45V71.25Z" fill="#FF7800"/>
<path d="M67.5 10H70C70.3315 10 70.6495 9.8683 70.8839 9.63388C71.1183 9.39946 71.25 9.08152 71.25 8.75C71.25 8.41848 71.1183 8.10054 70.8839 7.86612C70.6495 7.6317 70.3315 7.5 70 7.5H67.5C66.5054 7.5 65.5516 7.89509 64.8484 8.59835C64.1451 9.30161 63.75 10.2554 63.75 11.25V12.5H62.5C62.1685 12.5 61.8505 12.6317 61.6161 12.8661C61.3817 13.1005 61.25 13.4185 61.25 13.75C61.25 14.0815 61.3817 14.3995 61.6161 14.6339C61.8505 14.8683 62.1685 15 62.5 15H63.75V18.75C63.75 19.0815 63.8817 19.3995 64.1161 19.6339C64.3505 19.8683 64.6685 20 65 20C65.3315 20 65.6495 19.8683 65.8839 19.6339C66.1183 19.3995 66.25 19.0815 66.25 18.75V15H67.5C67.8315 15 68.1495 14.8683 68.3839 14.6339C68.6183 14.3995 68.75 14.0815 68.75 13.75C68.75 13.4185 68.6183 13.1005 68.3839 12.8661C68.1495 12.6317 67.8315 12.5 67.5 12.5H66.25V11.25C66.25 10.9185 66.3817 10.6005 66.6161 10.3661C66.8505 10.1317 67.1685 10 67.5 10Z" fill="#FF7800"/>
<path d="M73.75 2.5H58.75C57.7554 2.5 56.8016 2.89509 56.0984 3.59835C55.3951 4.30161 55 5.25544 55 6.25V8.75C55 9.08152 55.1317 9.39946 55.3661 9.63388C55.6005 9.8683 55.9185 10 56.25 10C56.5815 10 56.8995 9.8683 57.1339 9.63388C57.3683 9.39946 57.5 9.08152 57.5 8.75V6.25C57.5 5.91848 57.6317 5.60054 57.8661 5.36612C58.1005 5.1317 58.4185 5 58.75 5H73.75C74.0815 5 74.3995 5.1317 74.6339 5.36612C74.8683 5.60054 75 5.91848 75 6.25V21.25C75 21.5815 74.8683 21.8995 74.6339 22.1339C74.3995 22.3683 74.0815 22.5 73.75 22.5H58.75C58.4185 22.5 58.1005 22.3683 57.8661 22.1339C57.6317 21.8995 57.5 21.5815 57.5 21.25V13.75C57.5 13.4185 57.3683 13.1005 57.1339 12.8661C56.8995 12.6317 56.5815 12.5 56.25 12.5C55.9185 12.5 55.6005 12.6317 55.3661 12.8661C55.1317 13.1005 55 13.4185 55 13.75V21.25C55 22.2446 55.3951 23.1984 56.0984 23.9017C56.8016 24.6049 57.7554 25 58.75 25H73.75C74.7446 25 75.6984 24.6049 76.4016 23.9017C77.1049 23.1984 77.5 22.2446 77.5 21.25V6.25C77.5 5.25544 77.1049 4.30161 76.4016 3.59835C75.6984 2.89509 74.7446 2.5 73.75 2.5V2.5Z" fill="#FF7800"/>
<path d="M61.25 52.5C61.25 53.4889 61.5432 54.4556 62.0927 55.2779C62.6421 56.1001 63.423 56.741 64.3366 57.1194C65.2502 57.4978 66.2555 57.5969 67.2255 57.4039C68.1954 57.211 69.0863 56.7348 69.7855 56.0355C70.4848 55.3363 70.961 54.4454 71.1539 53.4755C71.3469 52.5055 71.2478 51.5002 70.8694 50.5866C70.491 49.673 69.8501 48.8921 69.0279 48.3427C68.2056 47.7932 67.2389 47.5 66.25 47.5C64.9239 47.5 63.6521 48.0268 62.7145 48.9645C61.7768 49.9021 61.25 51.1739 61.25 52.5ZM68.75 52.5C68.75 52.9945 68.6034 53.4778 68.3287 53.8889C68.054 54.3 67.6635 54.6205 67.2067 54.8097C66.7499 54.9989 66.2472 55.0484 65.7623 54.952C65.2773 54.8555 64.8319 54.6174 64.4822 54.2678C64.1326 53.9181 63.8945 53.4727 63.798 52.9877C63.7016 52.5028 63.7511 52.0001 63.9403 51.5433C64.1295 51.0865 64.4499 50.696 64.8611 50.4213C65.2722 50.1466 65.7555 50 66.25 50C66.913 50 67.5489 50.2634 68.0178 50.7322C68.4866 51.2011 68.75 51.837 68.75 52.5Z" fill="#FF7800"/>
<path d="M73.75 41.25H58.75C57.7554 41.25 56.8016 41.6451 56.0984 42.3484C55.3951 43.0516 55 44.0054 55 45V60C55 60.9946 55.3951 61.9484 56.0984 62.6516C56.8016 63.3549 57.7554 63.75 58.75 63.75H73.75C74.7446 63.75 75.6984 63.3549 76.4016 62.6516C77.1049 61.9484 77.5 60.9946 77.5 60V57.5C77.5 57.1685 77.3683 56.8505 77.1339 56.6161C76.8995 56.3817 76.5815 56.25 76.25 56.25C75.9185 56.25 75.6005 56.3817 75.3661 56.6161C75.1317 56.8505 75 57.1685 75 57.5V60C75 60.3315 74.8683 60.6495 74.6339 60.8839C74.3995 61.1183 74.0815 61.25 73.75 61.25H58.75C58.4185 61.25 58.1005 61.1183 57.8661 60.8839C57.6317 60.6495 57.5 60.3315 57.5 60V45C57.5 44.6685 57.6317 44.3505 57.8661 44.1161C58.1005 43.8817 58.4185 43.75 58.75 43.75H73.75C74.0815 43.75 74.3995 43.8817 74.6339 44.1161C74.8683 44.3505 75 44.6685 75 45V52.5C75 52.8315 75.1317 53.1495 75.3661 53.3839C75.6005 53.6183 75.9185 53.75 76.25 53.75C76.5815 53.75 76.8995 53.6183 77.1339 53.3839C77.3683 53.1495 77.5 52.8315 77.5 52.5V45C77.5 44.0054 77.1049 43.0516 76.4016 42.3484C75.6984 41.6451 74.7446 41.25 73.75 41.25V41.25Z" fill="#FF7800"/>
<path d="M30.5875 17.3125C30.7864 17.4358 31.016 17.5007 31.25 17.5C31.4457 17.4988 31.6384 17.4517 31.8125 17.3625L39.3125 13.6125C39.5173 13.5076 39.6891 13.3482 39.8091 13.1519C39.9291 12.9556 39.9926 12.73 39.9926 12.5C39.9926 12.2699 39.9291 12.0443 39.8091 11.848C39.6891 11.6517 39.5173 11.4924 39.3125 11.3875L31.8125 7.63748C31.6222 7.54159 31.4106 7.49594 31.1977 7.50486C30.9848 7.51377 30.7777 7.57697 30.5961 7.68843C30.4145 7.7999 30.2644 7.95594 30.1601 8.14173C30.0558 8.32752 30.0006 8.5369 30 8.74998V16.25C29.9996 16.4624 30.0533 16.6714 30.1561 16.8573C30.2589 17.0433 30.4074 17.1999 30.5875 17.3125V17.3125ZM32.5 10.775L35.95 12.5L32.5 14.225V10.775Z" fill="#FF7800"/>
<path d="M33.75 23.75C35.975 23.75 38.1501 23.0902 40.0002 21.854C41.8502 20.6179 43.2922 18.8609 44.1436 16.8052C44.9951 14.7495 45.2179 12.4875 44.7838 10.3052C44.3498 8.12295 43.2783 6.11839 41.705 4.54505C40.1316 2.97171 38.1271 1.90025 35.9448 1.46617C33.7625 1.03209 31.5005 1.25487 29.4448 2.10636C27.3891 2.95785 25.6321 4.39979 24.396 6.24984C23.1598 8.09989 22.5 10.275 22.5 12.5C22.5 15.4837 23.6853 18.3452 25.795 20.455C27.9048 22.5647 30.7663 23.75 33.75 23.75V23.75ZM33.75 3.75001C35.4806 3.75001 37.1723 4.26318 38.6112 5.22465C40.0502 6.18611 41.1717 7.55267 41.8339 9.15152C42.4962 10.7504 42.6695 12.5097 42.3319 14.207C41.9943 15.9044 41.1609 17.4635 39.9372 18.6872C38.7135 19.9109 37.1544 20.7443 35.457 21.0819C33.7597 21.4195 32.0004 21.2462 30.4015 20.584C28.8027 19.9217 27.4361 18.8002 26.4746 17.3612C25.5132 15.9223 25 14.2306 25 12.5C25 10.1794 25.9219 7.95376 27.5628 6.31282C29.2038 4.67188 31.4294 3.75001 33.75 3.75001V3.75001Z" fill="#FF7800"/>
<path d="M46.25 28.75C46.4441 28.75 46.6354 28.7048 46.809 28.618C46.9826 28.5313 47.1336 28.4052 47.25 28.25L51 23.25C51.1989 22.9848 51.2843 22.6514 51.2374 22.3232C51.1906 21.995 51.0152 21.6989 50.75 21.5C50.4848 21.3011 50.1514 21.2157 49.8232 21.2626C49.495 21.3095 49.1989 21.4848 49 21.75L45.25 26.75C45.0511 27.0152 44.9657 27.3486 45.0126 27.6768C45.0595 28.005 45.2348 28.3011 45.5 28.5C45.7164 28.6623 45.9795 28.75 46.25 28.75Z" fill="#FF7800"/>
<path d="M49 33.25C49.1164 33.4052 49.2674 33.5313 49.441 33.618C49.6146 33.7048 49.8059 33.75 50 33.75C50.2705 33.75 50.5336 33.6623 50.75 33.5L55.75 29.75C56.0152 29.5511 56.1906 29.255 56.2374 28.9268C56.2843 28.5986 56.1989 28.2652 56 28C55.8011 27.7348 55.505 27.5595 55.1768 27.5126C54.8486 27.4657 54.5152 27.5511 54.25 27.75L49.25 31.5C48.9848 31.6989 48.8095 31.995 48.7626 32.3232C48.7157 32.6514 48.8011 32.9848 49 33.25V33.25Z" fill="#FF7800"/>
<path d="M61.25 36C61.2203 35.8342 61.1574 35.6762 61.0651 35.5354C60.9729 35.3946 60.8531 35.2739 60.713 35.1805C60.5729 35.0871 60.4154 35.023 60.2499 34.9919C60.0844 34.9609 59.9144 34.9637 59.75 35L53.5 36.25C53.3359 36.2664 53.1765 36.315 53.0312 36.393C52.8858 36.4709 52.7572 36.5768 52.6527 36.7045C52.4418 36.9623 52.3419 37.2934 52.375 37.625C52.4082 37.9565 52.5717 38.2613 52.8295 38.4722C53.0874 38.6832 53.4185 38.7831 53.75 38.75H54L60.25 37.5C60.4157 37.4703 60.5737 37.4074 60.7146 37.3151C60.8554 37.2228 60.9761 37.103 61.0695 36.963C61.1629 36.8229 61.227 36.6654 61.258 36.4999C61.2891 36.3344 61.2863 36.1644 61.25 36Z" fill="#FF7800"/>
<path d="M3.75 36.25H18.75C19.0815 36.25 19.3995 36.1183 19.6339 35.8839C19.8683 35.6495 20 35.3315 20 35V15C20 14.6685 19.8683 14.3505 19.6339 14.1161C19.3995 13.8817 19.0815 13.75 18.75 13.75H3.75C3.41848 13.75 3.10054 13.8817 2.86612 14.1161C2.6317 14.3505 2.5 14.6685 2.5 15V35C2.5 35.3315 2.6317 35.6495 2.86612 35.8839C3.10054 36.1183 3.41848 36.25 3.75 36.25ZM5 16.25H17.5V33.75H5V16.25Z" fill="#FF7800"/>
<path d="M13.75 18.75H11.25C10.9185 18.75 10.6005 18.8817 10.3661 19.1161C10.1317 19.3505 10 19.6685 10 20C10 20.3315 10.1317 20.6495 10.3661 20.8839C10.6005 21.1183 10.9185 21.25 11.25 21.25H13.75C14.0815 21.25 14.3995 21.1183 14.6339 20.8839C14.8683 20.6495 15 20.3315 15 20C15 19.6685 14.8683 19.3505 14.6339 19.1161C14.3995 18.8817 14.0815 18.75 13.75 18.75Z" fill="#FF7800"/>
<path d="M13.75 23.75H8.75C8.41848 23.75 8.10054 23.8817 7.86612 24.1161C7.6317 24.3505 7.5 24.6685 7.5 25C7.5 25.3315 7.6317 25.6495 7.86612 25.8839C8.10054 26.1183 8.41848 26.25 8.75 26.25H13.75C14.0815 26.25 14.3995 26.1183 14.6339 25.8839C14.8683 25.6495 15 25.3315 15 25C15 24.6685 14.8683 24.3505 14.6339 24.1161C14.3995 23.8817 14.0815 23.75 13.75 23.75Z" fill="#FF7800"/>
<path d="M13.75 28.75H8.75C8.41848 28.75 8.10054 28.8817 7.86612 29.1161C7.6317 29.3505 7.5 29.6685 7.5 30C7.5 30.3315 7.6317 30.6495 7.86612 30.8839C8.10054 31.1183 8.41848 31.25 8.75 31.25H13.75C14.0815 31.25 14.3995 31.1183 14.6339 30.8839C14.8683 30.6495 15 30.3315 15 30C15 29.6685 14.8683 29.3505 14.6339 29.1161C14.3995 28.8817 14.0815 28.75 13.75 28.75Z" fill="#FF7800"/>
<path d="M45.1501 35.875C45.068 35.7322 44.9586 35.6069 44.8281 35.5064C44.6976 35.4058 44.5486 35.332 44.3896 35.289C44.2306 35.2461 44.0647 35.2349 43.9013 35.2561C43.738 35.2773 43.5804 35.3304 43.4376 35.4125C43.2948 35.4945 43.1695 35.6039 43.069 35.7344C42.9685 35.8649 42.8946 36.0139 42.8517 36.1729C42.8087 36.332 42.7975 36.4979 42.8187 36.6612C42.8399 36.8246 42.893 36.9822 42.9751 37.125L48.4876 46.6625L28.4876 54.1625C28.4876 54.1625 28.4876 54.1625 28.4001 54.1625H28.3001L25.0501 56.0375L22.8876 57.2875C22.6029 57.4521 22.2885 57.5588 21.9625 57.6017C21.6365 57.6446 21.3052 57.6228 20.9876 57.5375C20.3496 57.3651 19.8058 56.9471 19.4751 56.375L16.9751 52.05C16.681 51.4841 16.6142 50.8272 16.7885 50.2138C16.9628 49.6003 17.3649 49.0767 17.9126 48.75L22.2376 46.25L25.3626 51.6625C25.4727 51.8532 25.6313 52.0115 25.8223 52.1212C26.0132 52.231 26.2298 52.2883 26.4501 52.2875C26.6699 52.2883 26.8861 52.2312 27.0768 52.1219C27.2675 52.0125 27.4261 51.8548 27.5364 51.6646C27.6467 51.4745 27.7048 51.2586 27.7051 51.0387C27.7053 50.8189 27.6475 50.6029 27.5376 50.4125L24.3126 44.8375L40.0001 31.9L40.5126 32.7875C40.5947 32.9303 40.7041 33.0555 40.8345 33.1561C40.965 33.2566 41.114 33.3304 41.2731 33.3734C41.4321 33.4163 41.598 33.4275 41.7613 33.4064C41.9247 33.3852 42.0823 33.332 42.2251 33.25C42.3679 33.1679 42.4931 33.0585 42.5937 32.928C42.6942 32.7975 42.7681 32.6485 42.811 32.4895C42.854 32.3305 42.8652 32.1646 42.844 32.0012C42.8228 31.8379 42.7697 31.6803 42.6876 31.5375L41.4376 29.375C41.346 29.2184 41.2214 29.0836 41.0724 28.98C40.9235 28.8763 40.7538 28.8064 40.5751 28.775C40.3954 28.7411 40.2105 28.7471 40.0334 28.7924C39.8563 28.8378 39.6913 28.9214 39.5501 29.0375L22.0501 43.4625L16.7251 46.5375C15.7695 47.0941 15.0254 47.9518 14.6092 48.9764C14.193 50.001 14.1283 51.1346 14.4251 52.2L13.1751 52.9125C12.531 53.2823 12.0113 53.8351 11.6818 54.5007C11.3523 55.1663 11.2279 55.9148 11.3243 56.6512C11.4207 57.3876 11.7336 58.0788 12.2233 58.6371C12.713 59.1955 13.3575 59.5959 14.0751 59.7875C14.3932 59.8717 14.721 59.9138 15.0501 59.9125C15.7077 59.9097 16.3535 59.7375 16.9251 59.4125L18.1751 58.7C18.7756 59.3203 19.5307 59.769 20.3626 60C20.7897 60.1195 21.2316 60.1784 21.6751 60.175C22.5537 60.177 23.4169 59.9439 24.1751 59.5L25.2626 58.875L27.7626 63.2125C28.2594 64.0715 29.0765 64.6985 30.0348 64.9562C30.993 65.214 32.0144 65.0813 32.8751 64.5875C33.3021 64.3414 33.6764 64.0137 33.9766 63.6229C34.2769 63.2321 34.4971 62.7859 34.6248 62.31C34.7525 61.834 34.7852 61.3375 34.7209 60.8489C34.6566 60.3603 34.4966 59.8892 34.2501 59.4625L31.9751 55.5L50.7251 48.4625C50.8951 48.3986 51.0492 48.2983 51.1766 48.1688C51.3039 48.0393 51.4015 47.8836 51.4626 47.7125C51.5234 47.5434 51.5471 47.3632 51.532 47.1842C51.5169 47.0051 51.4634 46.8315 51.3751 46.675L45.1501 35.875ZM15.6251 57.2375C15.4827 57.3198 15.3256 57.3732 15.1625 57.3946C14.9995 57.4161 14.8339 57.4051 14.6751 57.3625C14.3548 57.2793 14.0806 57.0725 13.9126 56.7875C13.8303 56.6451 13.7769 56.4879 13.7555 56.3249C13.734 56.1619 13.7449 55.9963 13.7876 55.8375C13.8303 55.6778 13.9042 55.5283 14.005 55.3974C14.1058 55.2665 14.2316 55.1569 14.3751 55.075L15.4626 54.45L16.7126 56.6125L15.6251 57.2375ZM32.0751 60.7375C32.1574 60.8798 32.2108 61.037 32.2322 61.2C32.2537 61.363 32.2428 61.5287 32.2001 61.6875C32.1109 62.0052 31.8998 62.2748 31.6126 62.4375C31.3271 62.6015 30.9884 62.6462 30.6701 62.562C30.3518 62.4777 30.0796 62.2713 29.9126 61.9875L27.4126 57.65L29.4876 56.4625H29.5876L32.0751 60.7375Z" fill="#FF7800"/>
</svg>
