<svg width="80" height="80" viewBox="0 0 80 80" fill="none" xmlns="http://www.w3.org/2000/svg">
<g clip-path="url(#clip0)">
<path d="M12.7111 49.1447C17.5763 54.0099 24.0447 56.6893 30.9252 56.6893C37.8057 56.6893 44.274 54.0099 49.1393 49.1447C59.1826 39.1013 59.1826 22.7598 49.1393 12.7165C39.0961 2.67324 22.7543 2.67324 12.7111 12.7165C2.66785 22.7598 2.66785 39.1013 12.7111 49.1447V49.1447ZM19.1565 51.1829V39.9889C19.1565 36.8865 21.3113 34.2795 24.2021 33.5813L22.5959 40.006C22.3776 40.8793 22.6523 41.8016 23.3128 42.4132C23.7757 42.8419 24.3762 43.0698 24.9883 43.0698C25.0557 43.0698 25.1232 43.0668 25.1907 43.0612L28.8109 49.0948C29.2606 49.8444 30.0511 50.292 30.9252 50.292C31.7992 50.292 32.5897 49.8444 33.0395 49.0948L36.6596 43.0612C36.7271 43.0668 36.7948 43.0698 36.8621 43.0698C37.474 43.0698 38.0747 42.8417 38.5376 42.4132C39.1981 41.8016 39.4727 40.8793 39.2543 40.006L37.6482 33.5813C40.5392 34.2793 42.6939 36.8865 42.6939 39.9889V51.1829C39.1586 53.2452 35.1268 54.3459 30.9252 54.3459C26.7236 54.3459 22.6918 53.2452 19.1565 51.1829V51.1829ZM23.0386 17.99V16.6961C23.0386 14.488 24.835 12.6916 27.043 12.6916H34.8073C37.0153 12.6916 38.8117 14.488 38.8117 16.6961V17.99C38.8117 18.0575 38.7567 18.1125 38.6894 18.1125H23.1609C23.0934 18.1125 23.0386 18.0575 23.0386 17.99V17.99ZM24.3326 20.4559H37.5177V24.4603C37.5177 26.242 36.818 27.9114 35.5475 29.161C34.2772 30.4102 32.5953 31.0812 30.8121 31.0519C27.2393 30.9923 24.3326 27.978 24.3326 24.3325V20.4559ZM32.7509 39.3623L35.607 35.0781L36.981 40.574C36.9863 40.5949 36.9986 40.6443 36.9453 40.6935C36.8922 40.7429 36.8441 40.7268 36.8235 40.7199L32.7509 39.3623ZM25.0268 40.7199C25.0062 40.7268 24.9581 40.7429 24.905 40.6935C24.8519 40.6443 24.8642 40.5951 24.8694 40.574L26.2433 35.0781L29.0994 39.3623L25.0268 40.7199ZM30.9252 37.8765L27.9382 33.3962H30.9177C30.9206 33.3962 30.9238 33.3964 30.9267 33.3964C30.9278 33.3964 30.9289 33.3962 30.9299 33.3962H33.912L30.9252 37.8765ZM30.9252 41.2239L34.3452 42.3638L31.0302 47.8889C31.0195 47.9068 30.9945 47.9483 30.9252 47.9483C30.8558 47.9483 30.8308 47.9066 30.8202 47.8889L27.5052 42.3638L30.9252 41.2239ZM30.9252 7.52613C36.9213 7.52613 42.9174 9.80853 47.4822 14.3733C56.6119 23.503 56.6119 38.358 47.4822 47.4876C46.71 48.2598 45.8925 48.97 45.0372 49.6186V39.9888C45.0372 35.3354 41.4613 31.5034 36.9135 31.0915C37.0071 31.0068 37.1 30.9209 37.1906 30.8318C38.9127 29.1382 39.8611 26.8755 39.8611 24.4603V20.159C40.6311 19.7415 41.1551 18.9258 41.1551 17.99V16.6961C41.1551 13.1959 38.3075 10.3483 34.8073 10.3483H27.043C23.5429 10.3483 20.6953 13.1959 20.6953 16.6961V17.99C20.6953 18.9258 21.2194 19.7415 21.9893 20.159V24.3325C21.9893 27.0031 23.1537 29.421 24.9925 31.0872C20.4183 31.4728 16.8131 35.3165 16.8131 39.9888V49.6186C15.9578 48.97 15.1403 48.2598 14.3681 47.4876C5.23848 38.358 5.23848 23.503 14.3681 14.3733C18.9329 9.80869 24.929 7.52613 30.9252 7.52613V7.52613Z" fill="#FF7800"/>
<path d="M79.2856 66.6536L63.7171 51.0851C63.0237 50.3917 62.1018 50.0098 61.1212 50.0098C60.1406 50.0098 59.2185 50.3918 58.5252 51.0851L58.376 51.2343L56.0794 48.9375C64.7358 36.8592 63.644 19.901 52.7994 9.05634C47.9582 4.21517 41.8215 1.17712 35.0525 0.27087C28.501 -0.606162 21.7238 0.662051 15.9695 3.84258C15.4031 4.15549 15.1978 4.86849 15.5108 5.4348C15.8239 6.00126 16.5368 6.20669 17.1031 5.89346C28.183 -0.230292 42.1805 1.75154 51.1425 10.7134C62.2902 21.8611 62.2902 39.9999 51.1425 51.1476C39.9948 62.2953 21.856 62.2953 10.7083 51.1476C-0.439442 39.9999 -0.439442 21.8611 10.7083 10.7134C11.518 9.90369 12.382 9.13633 13.2764 8.43286C13.7851 8.03277 13.873 7.29618 13.4729 6.78752C13.0727 6.27902 12.3361 6.19091 11.8276 6.59115C10.8604 7.35196 9.92637 8.18134 9.05121 9.0565C-3.01024 21.1179 -3.01024 40.7432 9.05121 52.8047C15.082 58.8355 23.0037 61.8507 30.9253 61.8507C37.2487 61.8507 43.5709 59.9273 48.9324 56.0847L51.229 58.3813L51.08 58.5304C50.3865 59.2238 50.0047 60.1457 50.0047 61.1263C50.0047 62.1069 50.3867 63.0289 51.08 63.7223L55.4945 68.1366C55.9521 68.5942 56.694 68.5942 57.1514 68.1366C57.609 67.6791 57.609 66.9372 57.1514 66.4797L55.458 64.7863L64.7812 55.4629L77.6287 68.3105C77.6343 68.3161 77.6515 68.3335 77.6515 68.3657C77.6515 68.398 77.6343 68.4152 77.6287 68.4209L68.4158 77.6338C68.4102 77.6395 68.393 77.6567 68.3607 77.6567C68.3285 77.6567 68.3112 77.6395 68.3055 77.6338L60.466 69.7943C60.0084 69.3367 59.2665 69.3367 58.8089 69.7943C58.3514 70.2519 58.3514 70.9938 58.8089 71.4512L66.6485 79.2906C67.1059 79.748 67.7139 80 68.3607 80C69.0074 80 69.6156 79.7482 70.0729 79.2907L79.2856 70.078C79.743 69.6206 79.995 69.0126 79.995 68.3657C79.9949 67.719 79.743 67.1109 79.2856 66.6536V66.6536ZM50.7979 54.6362C51.4848 54.0596 52.1536 53.4505 52.7994 52.8047C53.4452 52.1588 54.0543 51.4901 54.6309 50.8031L56.719 52.8912L52.8861 56.7243L50.7979 54.6362ZM53.8009 63.1294L52.7369 62.0654C52.4862 61.8146 52.3479 61.4811 52.3479 61.1263C52.3479 60.7715 52.486 60.4382 52.7369 60.1874L60.1823 52.742C60.433 52.4913 60.7664 52.353 61.1212 52.353C61.476 52.353 61.8093 52.4911 62.0602 52.742L63.1243 53.806L53.8009 63.1294Z" fill="#FF7800"/>
<path d="M28.3374 24.6881C28.9845 24.6881 29.509 24.1635 29.509 23.5164V22.8694C29.509 22.2223 28.9845 21.6977 28.3374 21.6977C27.6903 21.6977 27.1657 22.2223 27.1657 22.8694V23.5164C27.1657 24.1635 27.6903 24.6881 28.3374 24.6881Z" fill="#FF7800"/>
<path d="M33.5135 24.6881C34.1606 24.6881 34.6852 24.1635 34.6852 23.5164V22.8694C34.6852 22.2223 34.1606 21.6977 33.5135 21.6977C32.8665 21.6977 32.3419 22.2223 32.3419 22.8694V23.5164C32.3419 24.1635 32.8665 24.6881 33.5135 24.6881Z" fill="#FF7800"/>
</g>
<defs>
<clipPath id="clip0">
<rect width="80" height="80" fill="white"/>
</clipPath>
</defs>
</svg>
