<svg width="200" height="40" viewBox="0 0 200 40" fill="none" xmlns="http://www.w3.org/2000/svg">
<path d="M12.474 20.0307C12.474 23.352 10.1496 25.2504 6.11643 25.2504H1.86843V30.019H0V14.9816H6.11643C10.1504 14.9816 12.474 16.8284 12.474 20.0307ZM10.6846 20.0734C10.6846 17.7731 8.98409 16.5725 6.05469 16.5725H1.86843V23.6562H6.05469C8.98409 23.6562 10.6846 22.4376 10.6846 20.0734Z" fill="#002039"/>
<path d="M26.4494 30.0182L23.0344 25.2078C22.7052 25.2291 22.3587 25.2504 21.9858 25.2504H17.6612V30.019H15.7986V14.9816H21.985C26.0552 14.9816 28.4051 16.8284 28.4051 20.0307C28.4608 21.14 28.1239 22.2334 27.4531 23.1205C26.7824 24.0076 25.8204 24.6319 24.7349 24.8847L28.573 30.019L26.4494 30.0182ZM21.9841 23.6562C24.9382 23.6562 26.605 22.4376 26.605 20.0734C26.605 17.7731 24.9292 16.5725 21.9751 16.5725H17.6612V23.6562H21.9841Z" fill="#002039"/>
<path d="M43.8941 14.9816V16.5717H34.7199V21.6175H42.9311V23.1863H34.7075V28.4273H44.1879V30.0174H32.8481V14.9816H43.8941Z" fill="#002039"/>
<path d="M50.5218 14.9816L56.4744 25.8925L62.4007 14.9816H64.679V30.0182H62.9571L62.9357 17.5263L57.0094 28.4281H55.8982L49.9901 17.5173V30.0092H48.2188V14.9816H50.5218Z" fill="#002039"/>
<path d="M71.7302 14.9816V30.0182H69.8701V14.9816H71.7302Z" fill="#002039"/>
<path d="M87.9413 14.9816V16.5717H78.7671V21.6175H86.975V23.1863H78.7548V28.4273H88.2352V30.0174H76.8921V14.9816H87.9413Z" fill="#002039"/>
<path d="M102.917 30.0182L99.4974 25.2078C99.1731 25.2291 98.8217 25.2504 98.4513 25.2504H94.1243V30.019H92.2649V14.9816H98.4513C102.521 14.9816 104.871 16.8284 104.871 20.0307C104.927 21.1398 104.589 22.2331 103.919 23.1201C103.248 24.007 102.286 24.6315 101.201 24.8847L105.039 30.019L102.917 30.0182ZM98.4513 23.6562C101.405 23.6562 103.078 22.4376 103.078 20.0701C103.078 17.7698 101.405 16.5693 98.4513 16.5693H94.1243V23.6562H98.4513Z" fill="#002039"/>
<path d="M123.079 20.2415C123.079 23.785 120.685 25.8474 116.519 25.8474H113.614V30.0158H109.357V14.9603H116.518C120.685 14.9603 123.079 16.8924 123.079 20.2415ZM119.033 20.3727C119.033 18.8892 118.033 18.0938 116.311 18.0938H113.614V22.7132H116.311C118.046 22.7148 119.034 21.898 119.034 20.3744L119.033 20.3727Z" fill="#002039"/>
<path d="M125.266 15.0457H129.566V25.5695C129.566 26.4527 129.939 26.8159 130.848 26.8159C131.127 26.8178 131.406 26.7964 131.682 26.752V30.1019C131.015 30.224 130.338 30.2812 129.661 30.2725C126.731 30.2725 125.266 28.8981 125.266 26.1287V15.0457Z" fill="#002039"/>
<path d="M141.475 26.8372C141.898 26.8694 142.323 26.8107 142.722 26.6651C143.12 26.5195 143.483 26.2904 143.785 25.9932C144.087 25.696 144.322 25.3377 144.473 24.9425C144.624 24.5472 144.689 24.1243 144.662 23.7021V14.9603H148.934V23.7021C148.934 27.663 146.053 30.1888 141.466 30.1888C136.878 30.1888 133.909 27.6753 133.909 23.7021V14.9603H138.162V23.7021C138.146 24.1324 138.222 24.5611 138.386 24.9598C138.549 25.3585 138.795 25.7181 139.108 26.0146C139.421 26.3111 139.795 26.5379 140.203 26.6797C140.611 26.8215 141.044 26.8752 141.475 26.8372Z" fill="#002039"/>
<path d="M158.01 17.9888C156.985 17.9888 156.312 18.3332 156.312 19.0188C156.312 21.5109 164.894 20.0947 164.894 25.5054C164.894 28.5766 161.965 30.1462 158.334 30.1462C155.638 30.1514 153.009 29.3079 150.823 27.736L152.474 24.6649C154.172 25.9924 156.228 26.7858 158.38 26.9438C159.637 26.9438 160.429 26.5141 160.429 25.7252C160.429 23.1691 151.845 24.7165 151.845 19.3878C151.845 16.5758 154.429 14.7955 158.359 14.7955C160.64 14.7923 162.882 15.3771 164.869 16.493L163.264 19.6092C161.645 18.71 159.855 18.158 158.01 17.9888Z" fill="#002039"/>
<path d="M190.442 17.6288C183.879 13.8655 179.818 4.71614 178.821 0.596985C178.026 1.61796 176.279 5.51733 177.58 11.4283C181.159 14.7142 185.634 16.8716 190.442 17.6288Z" fill="#DB0032"/>
<path d="M167.488 0L167.527 0.0819816L167.488 0Z" fill="white"/>
<path d="M161.099 40C161.099 40 182.222 27.6417 182.433 24.9109C171.258 18.5342 165.108 9.41185 167.488 0.00250244C167.488 0.00250244 176.742 19.5576 194.458 18.8294C195.229 18.7958 197.116 18.4817 197.633 18.4546C198.137 18.4317 198.637 18.5662 199.061 18.8393C199.485 19.1124 199.814 19.5105 200 19.9783C199.135 20.3063 197.299 20.3063 193.095 23.7014C182.763 32.0348 164.307 39.0463 161.099 40Z" fill="#FF9015"/>
</svg>
