<svg id="Capa_1" data-name="Capa 1" xmlns="http://www.w3.org/2000/svg" viewBox="0 0 669 144"><defs><style>.cls-1{fill:#fff;}</style></defs><title>logo-final-white</title><path class="cls-1" d="M47.79,72.1C47.79,83,40.19,89.23,27,89.23H13.11v15.65H7V55.53H27C40.19,55.53,47.79,61.59,47.79,72.1Zm-5.85.14c0-7.55-5.56-11.49-15.14-11.49H13.11V84H26.8C36.38,84,41.94,80,41.94,72.24Z"/><path class="cls-1" d="M93.49,104.88,82.32,89.09c-1.07.07-2.21.14-3.43.14H64.75v15.65H58.66V55.53H78.89c13.31,0,21,6.06,21,16.57,0,8.1-4.33,13.67-12,15.93l12.55,16.85ZM78.89,84C88.55,84,94,80,94,72.24c0-7.55-5.48-11.49-15.14-11.49H64.75V84Z"/><path class="cls-1" d="M150.53,55.53v5.22h-30V77.31h26.85v5.15H120.49v17.2h31v5.22H114.41V55.53Z"/><path class="cls-1" d="M172.2,55.53l19.47,35.81,19.39-35.81h7.45v49.35h-5.63l-.07-41L193.42,99.66h-3.65L170.45,63.85v41h-5.78V55.53Z"/><path class="cls-1" d="M241.55,55.53v49.35h-6.08V55.53Z"/><path class="cls-1" d="M294.56,55.53v5.22h-30V77.31h26.84v5.15H264.52v17.2h31v5.22H258.43V55.53Z"/><path class="cls-1" d="M343.53,104.88,332.35,89.09c-1.06.07-2.21.14-3.42.14H314.78v15.65H308.7V55.53h20.23c13.31,0,21,6.06,21,16.57,0,8.1-4.34,13.67-12,15.93l12.55,16.85ZM328.93,84c9.66,0,15.13-4,15.13-11.77,0-7.55-5.47-11.49-15.13-11.49H314.78V84Z"/><path class="cls-1" d="M409.46,72.8c0,11.63-7.83,18.4-21.45,18.4h-9.5v13.68H364.59V55.46H388C401.63,55.46,409.46,61.8,409.46,72.8Zm-13.23.43c0-4.87-3.27-7.48-8.9-7.48h-8.82V80.91h8.82C393,80.91,396.23,78.23,396.23,73.23Z"/><path class="cls-1" d="M416.61,55.74h14.06V90.28c0,2.9,1.22,4.09,4.19,4.09a16.46,16.46,0,0,0,2.73-.21v11a34.14,34.14,0,0,1-6.61.56c-9.58,0-14.37-4.51-14.37-13.6Z"/><path class="cls-1" d="M469.61,94.44c6.16,0,10.42-3.87,10.42-10.29V55.46H494V84.15c0,13-9.43,21.29-24.42,21.29s-24.71-8.25-24.71-21.29V55.46h13.91V84.15C458.73,90.5,463.3,94.44,469.61,94.44Z"/><path class="cls-1" d="M523.68,65.4c-3.35,0-5.55,1.13-5.55,3.38,0,8.18,28.06,3.53,28.06,21.29,0,10.08-9.58,15.23-21.45,15.23-8.9,0-18.17-3-24.56-7.9l5.4-10.08c5.47,4.37,13.76,7.48,19.31,7.48,4.11,0,6.7-1.41,6.7-4,0-8.39-28.07-3.31-28.07-20.8,0-9.23,8.45-15.08,21.3-15.08a43.23,43.23,0,0,1,21.29,5.57l-5.25,10.22C535.24,67.73,528.09,65.4,523.68,65.4Z"/><path class="cls-1" d="M629.73,64.22c-21.46-12.35-34.74-42.38-38-55.9-2.6,3.35-8.31,16.16-4.06,35.55C600.78,55.32,614.85,62.14,629.73,64.22Z"/><path class="cls-1" d="M554.67,6.36l.13.27-.13-.27Z"/><path class="cls-1" d="M533.78,137.64s69.07-40.56,69.76-49.53C567,67.18,546.89,37.24,554.67,6.36c0,0,30.26,64.18,88.19,61.79,2.52-.11,8.69-1.14,10.38-1.23,4.06-.23,6.19,2.18,7.74,5C658.15,73,652.15,73,638.4,84.14,604.63,111.5,544.27,134.51,533.78,137.64Z"/></svg>