<?xml version="1.0" standalone="no"?>
<!DOCTYPE svg PUBLIC "-//W3C//DTD SVG 20010904//EN"
 "http://www.w3.org/TR/2001/REC-SVG-20010904/DTD/svg10.dtd">
<svg version="1.0" xmlns="http://www.w3.org/2000/svg"
 width="513.000000pt" height="513.000000pt" viewBox="0 0 513.000000 513.000000"
 preserveAspectRatio="xMidYMid meet">
<metadata>
Created by potrace 1.11, written by Peter Selinger 2001-2013
</metadata>
<g transform="translate(0.000000,513.000000) scale(0.100000,-0.100000)"
fill="#000000" stroke="none">
<path d="M63 3123 c3 -5 7 -53 8 -108 7 -235 87 -371 281 -479 52 -29 106 -48
188 -67 66 -15 464 -20 595 -8 174 16 341 35 395 44 14 3 89 14 165 25 77 11
158 23 180 26 54 8 90 13 150 19 28 3 61 8 75 10 23 3 99 11 215 21 67 6 360
17 460 18 235 1 390 -31 401 -83 3 -14 7 -30 9 -36 6 -22 -27 -66 -68 -89 -69
-40 -202 -67 -402 -81 -222 -15 -239 -17 -365 -31 -135 -14 -279 -54 -320 -87
-56 -45 -77 -118 -44 -152 48 -48 149 -68 306 -60 117 5 131 7 258 26 84 12
85 13 155 29 28 6 61 14 75 16 14 3 85 18 158 35 73 16 150 32 170 35 20 3 40
8 43 10 6 3 283 62 334 70 17 3 57 11 90 19 50 11 258 49 383 70 17 3 46 7 62
10 43 7 72 12 200 30 23 4 49 7 163 20 188 22 310 29 504 29 101 1 183 2 183
3 0 5 -76 35 -160 63 -125 42 -287 77 -440 95 -25 3 -61 7 -80 10 -41 5 -171
16 -244 21 -70 4 -533 4 -576 0 -19 -2 -84 -7 -145 -11 -60 -4 -118 -9 -130
-11 -11 -2 -41 -6 -67 -9 -41 -5 -48 -3 -49 12 0 10 -2 45 -4 78 -3 33 -7 93
-10 132 -5 81 -17 107 -55 123 -31 12 -196 46 -269 55 -30 4 -61 8 -70 10
-133 25 -669 25 -1111 0 -719 -42 -1127 -15 -1443 94 -45 16 -99 36 -120 45
-22 9 -37 13 -34 9z"/>
</g>
</svg>
